<?xml version="1.0" standalone="no"?>
<!DOCTYPE svg PUBLIC "-//W3C//DTD SVG 20010904//EN"
 "http://www.w3.org/TR/2001/REC-SVG-20010904/DTD/svg10.dtd">
<svg version="1.0" xmlns="http://www.w3.org/2000/svg"
 width="12077.000000pt" height="7612.000000pt" viewBox="0 0 12077.000000 7612.000000"
 preserveAspectRatio="xMidYMid meet">

<g transform="translate(0.000000,7612.000000) scale(0.100000,-0.100000)"
fill="white" stroke="white">
<path d="M37080 75689 c-56 -25 -77 -44 -100 -89 -42 -83 -34 -166 23 -235 79
-97 229 -99 317 -5 l26 28 108 -139 c60 -76 112 -139 116 -139 27 0 5 43 -91
175 -74 102 -109 159 -109 177 0 32 1 32 165 -12 234 -63 1036 -274 9770
-2564 5044 -1323 9240 -2425 9325 -2449 l155 -43 7 -69 c4 -39 8 -78 10 -87 2
-10 -43 -63 -119 -140 -96 -97 -120 -127 -111 -136 14 -14 39 12 -580 -592
-320 -312 -396 -381 -413 -377 -24 6 -59 -12 -59 -30 0 -6 8 -13 17 -15 11 -2
-1211 -1198 -3657 -3580 -2807 -2733 -3677 -3575 -3687 -3567 -9 8 -43 -18
-139 -107 l-126 -119 -61 4 c-34 2 -62 4 -63 5 -164 218 -254 315 -254 275 0
-7 130 -194 192 -275 5 -7 -6 -21 -33 -38 -28 -19 -48 -44 -65 -81 l-24 -53
-175 -27 c-155 -25 -175 -30 -175 -47 0 -14 5 -17 23 -13 35 7 309 37 312 33
2 -2 -65 -43 -149 -92 -116 -67 -152 -93 -149 -105 3 -13 -789 -459 -3682
-2070 -2027 -1130 -3683 -2056 -3681 -2058 2 -2 1661 919 3685 2047 2909 1621
3685 2049 3696 2040 11 -9 46 6 166 70 l152 81 28 -34 c15 -19 42 -40 59 -47
35 -15 36 7 -4 -237 -20 -122 -21 -133 -5 -133 14 0 15 -6 8 -47 -5 -27 -607
-3391 -1339 -7476 -731 -4086 -1330 -7433 -1330 -7438 0 -5 -8 -9 -19 -9 -16
0 -23 -23 -51 -170 -18 -93 -36 -173 -39 -177 -3 -4 -22 -15 -42 -24 l-35 -17
-86 197 c-184 418 -4831 11298 -4840 11331 -6 19 -18 49 -28 65 -23 39 -1320
3073 -1320 3089 0 6 -6 20 -14 31 -13 20 -4128 9642 -4256 9954 l-68 163 32
51 c27 43 31 59 31 118 0 59 -4 73 -30 111 -95 135 -284 124 -357 -21 -33 -64
-36 -119 -9 -176 22 -48 51 -79 92 -101 31 -15 31 -16 12 -37 -10 -12 -55 -62
-98 -112 -118 -132 -10885 -11956 -10974 -12050 -42 -45 -211 -230 -376 -412
-164 -183 -309 -337 -321 -343 -19 -11 -52 4 -278 120 -200 104 -255 136 -251
149 3 12 -32 36 -149 100 -102 54 -153 88 -150 96 6 14 47 23 247 51 108 16
127 21 127 36 0 10 -3 18 -6 18 -7 0 -245 -28 -301 -35 l-41 -6 -7 43 c-20
116 -99 188 -207 188 -64 0 -125 -26 -159 -67 l-26 -31 -137 115 c-109 91
-138 110 -143 97 -6 -18 7 -32 170 -178 l87 -79 0 -59 c0 -60 22 -121 54 -147
9 -8 16 -17 16 -22 0 -5 -40 -72 -90 -148 -49 -77 -90 -144 -90 -149 0 -6 5
-12 11 -14 6 -2 -821 -1231 -1837 -2731 -1436 -2121 -1850 -2726 -1863 -2722
-13 4 -43 -32 -120 -141 l-103 -145 -38 6 c-21 4 -53 2 -72 -3 l-34 -9 -91
146 c-64 103 -96 146 -109 146 -14 0 -1413 2356 -5892 9925 -3230 5459 -5888
9953 -5908 9988 -26 46 -33 66 -25 76 8 9 -8 44 -58 134 -38 67 -68 122 -66
122 2 0 49 -38 106 -85 74 -63 105 -83 113 -75 11 11 -17 41 -182 192 l-73 67
10 39 c34 123 -69 252 -199 252 -125 0 -210 -83 -210 -205 0 -136 125 -239
250 -205 23 6 43 10 45 8 2 -2 23 -77 46 -168 23 -91 43 -166 44 -168 1 -1 9
0 18 3 13 6 13 13 2 63 -8 31 -12 59 -9 61 2 2 14 -19 26 -48 16 -39 26 -51
38 -48 14 4 1291 -2895 7379 -16762 5857 -13337 7361 -16769 7352 -16783 -8
-13 4 -52 55 -175 36 -87 61 -159 55 -161 -5 -2 -28 -17 -51 -33 -57 -41 -95
-123 -86 -185 7 -51 35 -111 64 -138 l21 -18 -79 -159 c-63 -126 -77 -160 -66
-166 11 -6 -481 -941 -2200 -4178 -1219 -2293 -2230 -4197 -2247 -4230 -22
-41 -37 -59 -49 -57 -11 2 -38 -37 -95 -138 -60 -107 -80 -136 -86 -122 -4 9
-25 87 -46 172 -29 112 -44 156 -55 158 -21 5 -21 -2 14 -164 17 -76 33 -151
36 -165 5 -26 4 -27 -46 -27 -108 0 -197 -82 -208 -192 -6 -67 33 -150 89
-187 l39 -26 -57 -106 c-31 -58 -68 -127 -82 -154 -22 -40 -24 -49 -11 -57 11
-7 25 9 63 76 27 47 51 83 53 81 2 -2 -9 -43 -25 -90 -25 -74 -27 -88 -15 -95
22 -12 -4512 -13171 -4535 -13165 -12 3 -24 -19 -50 -89 -93 -253 -91 -248
-119 -248 -44 -1 -115 -43 -147 -89 -26 -37 -30 -51 -30 -109 0 -37 4 -78 8
-92 7 -22 -7 -41 -108 -159 -86 -100 -112 -138 -104 -147 7 -9 1 -23 -24 -51
-676 -763 -8256 -9274 -8291 -9310 -33 -35 -54 -49 -60 -43 -6 6 -18 2 -34
-13 l-25 -22 12 23 c12 23 9 52 -6 52 -5 0 -48 -67 -97 -149 l-89 -149 -46 25
c-64 34 -157 30 -218 -11 -51 -34 -93 -111 -93 -171 0 -56 45 -144 89 -173
137 -90 316 -8 329 153 l4 55 62 0 c148 0 286 13 286 27 0 9 -18 13 -67 14
-38 1 -121 4 -185 8 l-118 6 115 134 c82 96 114 141 113 157 -2 17 969 1114
4162 4700 2291 2572 4173 4686 4182 4697 13 15 21 17 31 9 10 -9 39 18 131
118 l118 129 30 -15 c47 -24 118 -29 162 -10 21 9 42 16 47 16 5 0 66 -55 134
-121 97 -95 128 -119 138 -111 10 9 923 -891 4218 -4159 5178 -5137 5300
-5259 5294 -5279 -3 -10 39 -61 119 -145 146 -153 149 -165 47 -165 -142 0
-291 -13 -291 -25 0 -12 148 -25 285 -25 l61 0 11 -42 c27 -101 105 -162 203
-162 106 0 198 80 207 181 l5 49 227 27 c310 37 14790 1603 14970 1618 110 10
146 10 148 2 12 -34 54 -81 93 -103 130 -72 296 16 308 165 4 45 0 64 -23 110
-36 75 -84 107 -173 114 l-66 6 -47 190 c-27 105 -267 1115 -534 2245 -268
1130 -491 2069 -495 2085 -20 66 -1271 5343 -1276 5379 -3 22 -8 45 -11 50 -4
6 36 -30 88 -79 2607 -2493 3819 -3660 3814 -3673 -4 -11 33 -54 115 -137
l121 -121 -25 -45 c-18 -31 -26 -59 -26 -95 l0 -51 -157 -73 c-87 -40 -160
-74 -162 -76 -2 -2 -1 -10 2 -18 5 -12 36 -3 165 51 l160 65 48 -50 c64 -65
125 -82 207 -58 57 17 123 72 133 113 4 13 10 23 15 23 5 0 76 -29 157 -65
153 -68 172 -73 172 -52 0 7 -72 48 -160 92 -155 77 -160 81 -166 115 -4 19
-15 52 -26 73 l-19 39 85 156 c69 127 83 159 72 167 -20 16 6744 12011 6771
12008 12 -1 26 12 42 40 13 23 55 94 93 158 63 108 71 117 107 126 l39 10 103
-143 c77 -108 107 -143 119 -139 13 4 1781 -2545 7981 -11511 4380 -6335 7970
-11528 7977 -11542 9 -16 11 -27 4 -34 -7 -7 21 -58 89 -159 l99 -149 -15 -30
c-9 -17 -19 -30 -24 -30 -4 0 -74 29 -156 65 -81 36 -151 65 -156 65 -5 0 -9
-7 -9 -15 0 -10 56 -43 157 -93 l157 -77 12 -47 c27 -109 104 -173 204 -172
121 1 210 90 210 209 0 60 -22 110 -65 151 l-35 33 34 173 c32 164 33 187 6
188 -3 0 -23 -75 -45 -168 l-40 -167 -55 -3 -56 -3 -74 161 c-58 127 -77 159
-90 155 -24 -8 -5185 11577 -5169 11603 8 13 -5 54 -64 192 -51 121 -72 181
-67 195 8 24 20 30 210 110 107 45 144 65 142 77 -2 11 18 24 65 43 248 99
8046 3190 8075 3201 31 11 39 11 45 0 6 -10 46 1 174 48 l165 62 18 -24 c10
-13 29 -28 42 -34 31 -14 30 -22 -6 -209 -28 -143 -28 -181 -2 -165 5 3 12 20
16 38 3 18 20 93 37 166 l31 132 43 0 c28 0 62 10 100 30 67 35 44 46 195 -91
172 -154 13401 -12339 13547 -12476 l142 -134 -32 -45 c-25 -36 -32 -56 -34
-107 -4 -78 24 -138 86 -182 39 -27 50 -30 120 -30 67 0 83 4 118 27 58 38 97
120 91 188 -7 73 -51 138 -114 170 l-51 25 -6 75 c-4 41 -9 149 -12 240 -5
142 -396 13154 -409 13625 -3 94 -30 994 -60 2000 -30 1007 -57 1919 -60 2027
l-6 198 48 0 c26 0 65 9 87 18 l40 18 160 -86 c128 -70 162 -84 170 -73 14 19
5627 -3144 5623 -3169 -2 -12 39 -42 150 -108 112 -67 152 -96 150 -108 -3
-14 -32 -20 -181 -37 -161 -17 -177 -21 -177 -38 0 -17 5 -19 38 -14 20 3 100
9 177 12 l140 6 25 -53 c67 -143 263 -160 353 -31 17 24 34 43 37 43 4 0 78
-20 166 -45 103 -29 162 -41 168 -35 17 17 -2 25 -171 80 -90 30 -163 59 -163
65 0 10 59 30 278 95 55 16 72 25 70 37 -3 17 -468 -112 10097 2806 2784 769
3781 1040 3783 1030 5 -18 6 -18 197 30 169 43 170 43 190 24 55 -53 170 -64
243 -22 l43 25 141 -100 c103 -74 144 -98 153 -90 9 8 48 -16 146 -88 204
-149 18543 -13747 18632 -13815 57 -42 75 -62 68 -71 -7 -8 27 -40 125 -115
74 -57 134 -105 134 -106 0 -1 -71 17 -157 41 -174 49 -183 50 -183 30 0 -10
52 -31 164 -67 l164 -52 -5 -53 c-13 -127 84 -234 212 -234 36 0 123 39 147
66 26 29 58 105 58 139 0 77 -47 157 -114 192 -17 9 -60 19 -96 22 l-64 6 -81
142 c-44 78 -84 145 -88 150 -5 4 -14 1 -20 -7 -7 -8 -22 -16 -34 -17 -19 -2
-1232 1600 -7643 10098 -5819 7711 -7619 10103 -7611 10113 8 10 -15 48 -95
159 l-106 146 -2 95 -3 96 78 162 c58 124 74 166 66 176 -16 20 1679 3411
1702 3405 12 -3 38 37 100 156 76 144 87 161 110 161 14 0 45 9 68 19 31 15
44 17 51 8 5 -7 44 -74 86 -149 42 -76 81 -138 86 -138 26 0 14 34 -60 176
-77 146 -81 157 -70 185 7 16 16 32 21 35 10 6 105 -63 494 -357 143 -107
1450 -1093 2905 -2189 2417 -1822 2807 -2117 2834 -2141 5 -5 4 -20 -4 -38 -6
-16 -12 -52 -12 -80 2 -216 298 -281 394 -86 31 61 30 110 -3 191 -12 29 -9
40 41 155 81 191 3462 7773 3547 7957 70 150 78 162 102 162 15 0 51 15 81 33
121 73 136 223 32 330 -36 37 -37 41 -44 130 -3 51 -7 134 -7 185 -1 86 -2 92
-21 92 -20 0 -21 -5 -20 -167 0 -93 1 -173 0 -178 0 -6 -19 -9 -42 -7 -56 4
-144 -40 -176 -87 -30 -45 -45 -107 -38 -152 l6 -37 -152 -57 c-181 -67 -180
-66 -169 -84 7 -11 41 -3 176 42 l167 56 26 -31 c14 -17 43 -38 62 -47 l37
-16 -45 -105 c-38 -90 -3463 -7773 -3521 -7900 -25 -54 -26 -45 -5 55 14 68
14 78 1 88 -14 11 79 455 756 3640 756 3553 773 3629 800 3649 33 24 38 63 7
55 -16 -4 -20 -1 -16 11 2 9 406 1908 898 4219 764 3595 895 4202 909 4198 13
-4 19 11 34 77 10 46 22 87 27 92 4 6 8 -34 8 -87 0 -91 1 -97 20 -97 20 0 21
5 20 163 0 89 -1 168 0 175 0 7 16 12 43 12 93 1 177 70 198 164 21 96 -21
183 -111 229 -41 21 -66 27 -97 25 l-43 -3 0 177 c0 171 -1 178 -20 178 -19 0
-20 -7 -20 -107 0 -162 -11 -271 -26 -277 -9 -3 -52 42 -116 121 -57 70 -106
131 -110 137 -4 6 -11 6 -20 -1 -19 -16 -3493 4494 -3477 4513 9 11 -14 47
-101 164 -110 147 -112 150 -105 191 11 64 -11 126 -65 180 l-47 47 59 152
c61 161 65 176 47 182 -7 2 811 2042 2007 5006 1641 4065 2022 5002 2035 4999
13 -4 33 33 90 167 40 94 74 173 76 176 15 18 23 -47 23 -187 0 -138 2 -163
15 -163 11 0 15 13 16 58 0 31 4 114 8 183 6 126 6 126 38 153 87 73 97 222
20 304 -68 73 -190 86 -274 29 -35 -24 -83 -92 -83 -118 0 -13 -31 -22 -162
-48 -199 -39 -198 -39 -198 -57 0 -18 3 -18 186 12 164 26 173 26 174 -17 0
-20 44 -85 73 -110 12 -11 32 -22 45 -25 12 -3 22 -7 22 -8 0 -1 -29 -77 -64
-169 -46 -119 -60 -167 -50 -167 8 0 14 -4 14 -10 0 -5 -891 -2218 -1981
-4917 -1090 -2700 -1997 -4948 -2016 -4996 -26 -65 -40 -87 -52 -85 -12 3 -33
-36 -87 -162 -39 -91 -77 -166 -85 -168 -8 -1 -70 60 -138 137 -89 101 -130
140 -144 138 -29 -3 -7022 8110 -7006 8129 8 10 -17 46 -106 153 -101 122
-115 143 -109 166 4 15 16 31 28 35 17 8 315 70 332 70 2 0 4 8 4 18 0 18 -6
17 -142 -4 -79 -13 -158 -25 -175 -28 -31 -4 -33 -2 -43 35 -23 85 -111 148
-207 149 l-52 0 -76 133 c-94 167 -100 175 -115 161 -8 -8 10 -52 70 -168 45
-86 77 -156 72 -156 -6 0 -25 -14 -42 -32 l-32 -31 -166 51 c-139 43 -169 49
-178 38 -8 -12 -93 13 -490 143 -7152 2345 -8734 2867 -8734 2882 0 19 -1 19
-195 87 -134 47 -140 50 -143 78 -1 16 -10 46 -19 66 l-15 37 110 138 c76 96
107 142 100 150 -5 6 -15 10 -23 7 -8 -3 -12 1 -12 12 4 39 -24 16 -130 -111
l-113 -133 -47 15 c-79 24 -150 5 -211 -58 -37 -38 -65 -118 -57 -164 6 -30 6
-30 -150 -110 -117 -60 -154 -84 -151 -96 3 -13 -948 -480 -4435 -2178 -3892
-1896 -4441 -2161 -4456 -2149 -10 7 -18 19 -18 27 0 8 -5 16 -11 18 -5 2 -73
-41 -149 -96 l-140 -99 -22 34 c-13 18 -44 45 -69 60 -79 46 -191 31 -252 -34
l-27 -29 -150 63 c-118 49 -25931 11206 -26715 11547 -107 46 -234 103 -282
125 l-86 40 -7 44 c-15 103 -92 178 -189 186 -70 6 -119 -11 -167 -59 l-38
-38 -213 54 c-276 69 -18886 4953 -19081 5007 l-148 42 -18 40 c-33 75 -113
126 -196 126 -16 0 -50 -10 -75 -21z m-26302 -13834 c4600 -7774 5867 -9923
5860 -9935 -8 -12 10 -51 76 -168 l87 -152 -20 -27 c-27 -38 -44 -108 -35
-146 17 -82 64 -137 140 -166 l49 -19 21 -93 c12 -52 30 -129 39 -171 13 -60
21 -78 34 -78 14 0 205 -923 1297 -6272 1130 -5534 1279 -6273 1263 -6276 -14
-3 -15 -9 -8 -40 14 -62 9 -69 -15 -22 -14 26 -31 45 -41 45 -16 0 -1585 3569
-13932 31689 l-816 1859 24 18 24 18 42 -72 c23 -40 2683 -4536 5911 -9992z
m46737 8267 c342 -145 25788 -11148 25855 -11179 109 -51 493 -216 649 -279
177 -71 343 -146 337 -151 -2 -3 -63 2 -135 11 -159 19 -151 20 -151 0 0 -13
-7 -15 -32 -10 -18 3 -6569 924 -14558 2046 -7989 1122 -14539 2043 -14557
2046 -17 3 -33 13 -35 22 -4 14 -36 22 -154 40 -204 32 -189 26 -219 88 -18
36 -40 64 -66 81 -21 14 -39 29 -39 32 0 4 24 80 54 169 41 122 51 162 40 162
-8 0 -14 4 -14 9 0 5 432 1223 960 2707 529 1483 959 2701 958 2706 -2 4 -437
-1212 -968 -2702 -776 -2179 -968 -2710 -981 -2707 -12 3 -30 -35 -81 -167
-63 -167 -65 -171 -98 -177 -65 -14 -136 -83 -162 -159 -1 -5 -81 -26 -175
-47 -146 -31 -173 -40 -173 -55 0 -10 -3 -18 -6 -18 -4 0 -1214 -234 -2690
-520 -1477 -286 -2691 -520 -2699 -520 -8 0 -15 7 -15 16 0 10 -6 14 -17 10
-39 -12 -315 -57 -326 -53 -6 2 38 54 98 116 70 73 109 120 108 132 -2 13
1106 1098 3669 3593 3342 3254 3673 3574 3698 3570 35 -8 61 20 36 39 -14 10
47 73 475 490 391 381 494 476 504 467 11 -9 35 8 112 81 153 146 157 149 171
140 10 -6 1 -45 -41 -174 -44 -134 -52 -169 -41 -175 10 -6 -29 -128 -183
-560 -171 -482 -199 -553 -215 -549 -16 5 -38 -18 -38 -38 0 -5 23 -15 67 -29
29 -9 43 29 17 48 -16 12 -4 50 161 512 229 645 213 604 233 604 13 0 32 41
78 162 l61 162 47 12 c63 16 117 53 140 96 l19 36 91 -38 c50 -21 154 -65 231
-98z m-23524 -85 c-35 -84 -45 -117 -35 -117 8 0 14 -4 14 -9 0 -4 -1102
-2484 -2448 -5511 -2344 -5267 -2450 -5503 -2480 -5516 -18 -7 -32 -15 -32
-18 0 -2 -3 -11 -6 -20 -4 -12 0 -16 16 -16 14 0 20 -5 17 -12 -2 -7 -408
-920 -902 -2029 -863 -1941 -898 -2016 -921 -2011 -14 2 -24 0 -24 -7 0 -6 -5
-11 -11 -11 -19 0 -4869 2512 -4869 2522 0 4 17 27 38 51 223 247 574 631 608
667 24 25 205 223 402 440 350 387 9920 10896 10420 11443 140 153 256 276
258 274 2 -2 -18 -56 -45 -120z m299 -120 c12 3 213 -921 1089 -4999 591
-2752 1076 -5009 1079 -5015 2 -8 -4 -13 -18 -13 -30 0 -24 -44 7 -48 16 -2
24 -14 32 -50 6 -26 209 -967 451 -2092 405 -1888 438 -2046 422 -2058 -9 -7
-17 -23 -17 -35 0 -18 -385 -235 -2573 -1455 -2036 -1134 -2576 -1431 -2587
-1422 -11 9 -46 -6 -166 -70 -110 -59 -155 -78 -158 -69 -2 8 -24 34 -49 59
l-45 45 17 157 c10 86 20 166 23 177 4 15 1 21 -11 21 -9 0 -16 8 -16 18 0 22
868 6196 876 6231 2 13 13 25 24 28 27 7 34 44 9 50 -10 3 -19 11 -19 19 0 7
315 2251 700 4986 634 4507 768 5431 801 5508 8 19 46 218 50 265 0 6 15 -46
32 -115 25 -96 36 -125 47 -123z m-205 64 c-7 -40 -11 -81 -8 -90 5 -21 -49
-405 -88 -626 -16 -93 -27 -181 -24 -195 3 -14 2 -20 -3 -13 -4 7 -385 -2066
-886 -4820 -483 -2658 -882 -4852 -887 -4877 -7 -32 -16 -48 -32 -55 -27 -12
-31 -51 -4 -47 9 2 17 -1 17 -5 0 -4 -263 -1450 -584 -3213 -561 -3087 -583
-3205 -604 -3203 -14 2 -22 -4 -24 -17 -3 -17 -256 111 -1846 933 -1696 876
-1842 954 -1837 974 3 14 -1 25 -11 31 -14 8 112 298 889 2043 758 1704 908
2035 926 2037 11 2 28 13 36 25 15 21 14 22 -8 27 -22 5 87 252 2428 5513
1990 4473 2453 5507 2467 5504 12 -4 25 15 53 75 20 44 38 78 40 77 2 -2 -3
-37 -10 -78z m2365 -4931 c1145 -2681 2090 -4893 2100 -4915 51 -111 1318
-3084 1323 -3106 6 -25 -25 -43 -1217 -707 -673 -375 -1226 -682 -1230 -682
-3 0 -6 7 -6 16 0 11 -6 15 -20 11 -12 -3 -21 1 -24 12 -5 16 -896 4160 -896
4167 0 2 9 4 20 4 34 0 22 45 -14 51 -17 4 -137 550 -1094 5006 -990 4610
-1073 5005 -1061 5033 14 29 14 29 25 7 6 -12 948 -2216 2094 -4897z m-2493
3938 c-3 -8 -6 -5 -6 6 -1 11 2 17 5 13 3 -3 4 -12 1 -19z m40 -10 c-3 -8 -6
-5 -6 6 -1 11 2 17 5 13 3 -3 4 -12 1 -19z m-50 -55 c-3 -10 -5 -4 -5 12 0 17
2 24 5 18 2 -7 2 -21 0 -30z m40 -10 c-3 -10 -5 -4 -5 12 0 17 2 24 5 18 2 -7
2 -21 0 -30z m-81 -284 c-20 -140 -38 -264 -40 -277 -2 -13 0 -20 4 -15 4 4
29 130 55 280 27 150 51 270 53 268 3 -2 -296 -2143 -664 -4756 -652 -4629
-670 -4752 -691 -4760 -28 -10 -31 -46 -5 -51 17 -3 -14 -235 -422 -3130 -385
-2738 -442 -3128 -457 -3128 -11 0 -19 -11 -22 -32 -3 -18 -16 -97 -28 -175
-21 -131 -24 -143 -43 -143 -12 0 -44 -11 -72 -24 -46 -21 -69 -42 -99 -90 -9
-13 -31 -5 -164 59 -112 55 -157 72 -166 65 -20 -17 -107 29 -100 51 4 10 -2
25 -13 36 -19 18 -10 69 548 3138 312 1716 575 3164 584 3217 16 85 20 97 39
100 16 2 23 11 25 32 3 25 1 28 -18 23 -16 -4 -20 -2 -16 11 2 9 395 2167 873
4795 477 2628 869 4774 871 4769 2 -6 -13 -124 -32 -263z m60991 -5574 c121
-37 155 -44 170 -35 27 17 9217 -2999 9221 -3026 2 -15 37 -31 160 -73 86 -29
160 -56 164 -60 3 -3 8 -28 10 -56 l3 -49 -155 -73 c-110 -52 -155 -78 -155
-90 0 -26 -17053 -7459 -17077 -7444 -13 8 -52 -4 -173 -54 -87 -36 -159 -65
-161 -65 -14 0 8 38 97 171 78 118 98 153 89 164 -16 20 7126 10365 7154
10362 14 -1 47 37 120 138 l101 139 57 -3 c71 -3 134 23 173 72 16 19 33 33
39 32 6 -2 79 -25 163 -50z m-513 7 c3 -5 -37 -71 -88 -148 -68 -102 -93 -148
-92 -169 0 -24 -697 -1040 -3553 -5175 -1954 -2830 -3560 -5153 -3569 -5162
-9 -12 -19 -15 -26 -9 -7 6 -45 -38 -114 -135 -99 -139 -104 -143 -125 -130
-12 8 -40 19 -62 25 l-41 11 -54 166 c-42 128 -60 168 -75 174 -30 11 -1722
5390 -1701 5405 12 9 6 40 -39 193 -52 174 -53 182 -38 212 8 17 17 48 20 69
5 38 6 38 168 122 119 61 161 88 158 99 -6 22 8875 4349 8887 4329 7 -10 32
-2 117 35 59 27 128 59 153 72 49 25 66 29 74 16z m-40254 -465 c0 -26 52 -87
95 -112 33 -20 59 -27 100 -27 l56 -1 92 -149 c68 -110 96 -148 109 -145 12 4
36 -28 91 -122 42 -69 953 -1604 2026 -3411 1496 -2519 1947 -3286 1936 -3292
-11 -7 0 -33 52 -124 36 -63 63 -117 61 -119 -2 -2 -54 25 -117 61 -88 49
-117 62 -127 53 -20 -16 -10156 5939 -10148 5962 3 13 -34 41 -155 115 -117
72 -160 103 -164 120 -4 25 -7 24 234 75 87 18 106 25 102 38 -3 14 368 88
2693 539 2332 451 2698 520 2708 507 10 -13 31 -11 171 14 191 35 185 34 185
18z m614 -13 c117 -14 131 -14 141 -1 10 14 1720 -224 14561 -2028 8002 -1125
14563 -2047 14580 -2050 19 -3 34 -13 36 -23 4 -14 34 -22 159 -41 171 -27
174 -24 -43 -56 -102 -15 -118 -20 -118 -36 0 -11 -6 -19 -12 -19 -7 0 -5534
-738 -12282 -1641 -10802 -1446 -12270 -1640 -12280 -1627 -10 14 -32 13 -201
-6 l-189 -21 -45 23 c-38 19 -58 23 -114 20 l-68 -4 -91 146 c-64 104 -96 146
-109 146 -27 -1 -4065 6800 -4049 6819 9 11 -7 46 -72 161 l-85 147 34 50 c18
27 33 53 33 59 0 5 18 7 43 4 23 -3 100 -13 171 -22z m-6520 -1408 c75 -42
103 -53 113 -44 10 8 69 -22 245 -126 128 -74 2407 -1413 5063 -2974 3691
-2169 4830 -2843 4830 -2857 0 -16 110 -91 282 -193 9 -6 9 -18 -3 -52 -19
-53 -7 -124 28 -177 26 -37 93 -83 123 -83 18 0 28 -23 78 -175 45 -135 62
-175 75 -175 14 0 438 -1372 2310 -7477 2181 -7115 2292 -7480 2280 -7513 -26
-76 -1121 -2847 -1138 -2879 l-17 -35 -16 25 c-20 33 -14236 24349 -14277
24422 -23 41 -29 61 -22 70 8 9 -14 56 -80 174 -49 89 -87 167 -83 173 4 7 24
1 58 -19 29 -16 97 -54 151 -85z m-185 -133 c63 -104 91 -141 104 -140 14 2
1596 -2698 7181 -12250 l7164 -12253 -24 -67 c-49 -141 -1240 -3141 -1254
-3160 -14 -20 -297 190 -7895 5857 -6098 4548 -7880 5882 -7880 5898 0 15 -39
51 -137 127 l-137 105 21 36 c58 98 -2 255 -109 288 -29 9 -29 16 2 201 22
133 23 151 9 161 -13 11 148 921 1320 7470 735 4103 1338 7469 1341 7481 3 15
10 20 20 17 8 -4 15 -5 15 -3 0 17 70 343 75 347 10 10 69 30 84 28 7 0 52
-65 100 -143z m56967 -1425 c161 -182 188 -208 204 -203 12 4 876 -992 3496
-4032 1913 -2220 3488 -4048 3498 -4061 15 -19 16 -26 6 -32 -10 -6 11 -37 76
-115 49 -59 99 -120 111 -135 l23 -28 -33 -34 c-31 -33 -43 -37 -183 -68 -210
-45 -224 -49 -224 -65 0 -7 -8 -16 -17 -19 -10 -3 -2266 -446 -5013 -986
-2747 -539 -5005 -982 -5017 -985 -16 -4 -23 -1 -23 10 0 19 5 20 -190 -14
-91 -16 -167 -27 -170 -25 -2 3 19 86 48 186 45 154 51 182 38 192 -12 9 227
792 1539 5041 1241 4021 1556 5030 1568 5029 12 -1 30 41 74 173 55 167 60
176 93 194 19 10 40 18 46 19 7 0 29 -19 50 -42z m-407 19 c-8 -7 -57 -47
-107 -91 -70 -60 -90 -82 -82 -91 16 -19 -19747 -16280 -19766 -16264 -10 8
-46 -15 -153 -100 -133 -106 -162 -123 -176 -102 -3 6 13 82 35 170 45 181 45
178 27 183 -13 3 171 665 2189 7891 37 132 50 167 63 167 13 0 24 23 45 93 79
266 74 255 120 276 53 24 82 56 105 117 l19 49 163 76 c122 56 165 80 167 95
4 28 17072 7469 17087 7449 9 -10 36 -2 140 41 138 57 149 60 124 41z m169 -6
c10 -6 3 -43 -35 -175 -39 -139 -45 -169 -33 -176 12 -7 -19 -118 -173 -617
-2640 -8557 -2914 -9438 -2930 -9437 -12 1 -29 -36 -72 -166 l-56 -167 -42 14
c-51 18 -107 11 -162 -20 -58 -33 -81 -71 -110 -182 -1 -6 -77 -37 -167 -70
-132 -47 -164 -62 -161 -75 4 -14 -87 -48 -509 -194 -282 -97 -3895 -1344
-8028 -2770 -6309 -2177 -7517 -2591 -7526 -2579 -12 14 -28 10 -314 -83 -19
-6 -3 9 128 121 74 63 101 92 97 104 -4 13 2363 1966 9856 8132 5424 4463
9871 8120 9881 8127 13 9 23 11 31 4 9 -7 53 23 155 104 79 63 146 114 150
114 4 0 13 -4 20 -9z m-20503 -1376 c-102 -51 -149 -79 -147 -89 1 -8 -3 -18
-10 -23 -7 -4 -2004 -944 -4438 -2089 -3644 -1714 -4427 -2079 -4436 -2068
-10 12 -23 9 -80 -17 -196 -89 -264 -117 -270 -108 -14 24 -86 49 -139 49 -63
0 -102 -16 -158 -67 -21 -18 -41 -32 -45 -30 -4 3 -79 8 -167 12 -88 4 -163 9
-167 11 -3 2 -10 -5 -13 -16 -6 -18 -12 -20 -48 -15 -23 3 -3311 253 -7307
555 -3996 303 -7280 553 -7297 556 -19 3 -33 11 -33 19 0 9 -18 15 -57 20
-155 16 -157 17 -50 34 82 12 98 17 94 31 -3 14 1451 210 12272 1658 6752 904
12282 1643 12289 1642 6 0 12 -7 12 -15 0 -12 8 -14 38 -9 64 10 256 32 282
32 15 0 -36 -30 -125 -73z m313 -44 c30 -6 58 -6 90 3 l47 11 56 -165 c44
-128 60 -164 72 -162 13 2 25 -26 57 -125 22 -70 404 -1284 849 -2698 660
-2098 806 -2572 794 -2580 -11 -8 -5 -39 35 -177 44 -150 47 -168 32 -173 -29
-9 -89 -76 -100 -111 -14 -41 -5 -40 -200 -13 -136 19 -152 19 -163 6 -11 -14
-609 76 -5422 817 -4569 703 -5410 835 -5413 848 -4 18 2 17 -207 53 -82 15
-151 28 -154 30 -2 2 66 39 152 81 99 49 153 81 150 89 -2 7 2 17 9 21 7 5
2004 946 4438 2090 3590 1689 4427 2079 4436 2068 9 -11 41 0 175 60 l164 74
30 -19 c17 -10 50 -22 73 -28z m-63044 -589 c119 -58 166 -76 177 -69 11 7 81
-24 272 -124 141 -73 257 -136 257 -140 0 -7 -4815 -5299 -5003 -5499 -39 -41
-67 -68 -62 -60 5 8 32 52 61 96 35 55 49 85 42 92 -7 7 -6 16 0 29 6 10 835
1236 1842 2723 1373 2028 1837 2705 1851 2705 14 0 51 45 122 144 l102 144 50
2 c28 1 66 9 85 18 19 8 37 16 38 16 2 1 77 -34 166 -77z m3421 -1730 c1836
-951 2219 -1152 2217 -1168 -2 -10 3 -23 11 -29 14 -10 -66 -195 -558 -1301
l-574 -1289 -48 -8 c-43 -7 -8402 -556 -8718 -573 l-130 -6 -17 35 -17 36 87
98 c85 96 4478 4921 4880 5360 l203 223 222 -115 c122 -63 1221 -631 2442
-1263z m14954 1061 c20 -40 4768 -11149 4865 -11383 61 -146 62 -150 44 -168
-8 -8 -48 8 -162 68 -343 180 -5705 3077 -5731 3096 -27 20 -40 77 -776 3505
-660 3072 -746 3485 -734 3500 8 8 15 24 15 35 0 16 246 157 1223 702 672 374
1225 681 1229 682 4 0 16 -17 27 -37z m-2559 -1399 c0 -11 6 -13 19 -9 13 4
21 0 25 -12 7 -25 1476 -6870 1483 -6911 5 -31 5 -32 -18 -23 -24 9 -6597
3552 -6875 3706 l-140 78 17 51 17 51 160 94 c119 70 158 98 155 110 -3 13
569 336 2564 1448 1412 788 2574 1432 2581 1432 6 1 12 -6 12 -15z m29495
-1204 c3993 -303 7279 -553 7303 -556 27 -3 42 -10 42 -20 0 -8 6 -14 13 -15
6 0 84 -8 172 -17 l160 -17 6 -49 5 -49 -138 -110 c-100 -81 -137 -115 -133
-127 4 -13 -814 -641 -3382 -2597 -1864 -1419 -3403 -2590 -3421 -2603 -26
-19 -35 -22 -41 -11 -6 9 -42 -12 -137 -81 -71 -52 -135 -98 -142 -102 -9 -5
-25 2 -45 22 -18 16 -46 37 -64 46 -40 20 -122 21 -169 1 l-35 -15 -137 115
c-97 81 -140 111 -148 104 -9 -7 -32 7 -81 49 -37 32 -1643 1439 -3568 3126
-2545 2231 -3500 3073 -3499 3087 0 14 -41 59 -125 137 -69 64 -126 123 -125
130 0 6 1 31 2 53 l2 42 143 -7 c78 -4 159 -9 180 -12 32 -5 37 -3 37 13 0 15
6 18 33 16 17 -2 3299 -251 7292 -553z m-7613 250 c94 -78 135 -107 143 -100
9 7 35 -9 91 -58 44 -37 1650 -1444 3569 -3126 2582 -2263 3489 -3064 3488
-3078 -2 -12 19 -39 59 -76 209 -192 195 -176 181 -208 -18 -43 -15 -123 6
-170 22 -49 84 -102 128 -110 18 -3 35 -10 38 -14 3 -5 -18 -68 -46 -142 -107
-281 -3172 -8026 -3196 -8078 l-26 -55 -13 40 c-41 127 -4564 14886 -4564
14894 0 5 6 11 13 13 10 2 2 44 -35 172 -26 93 -47 170 -45 170 1 1 16 9 32
18 17 10 34 18 38 18 4 0 67 -49 139 -110z m-29947 -948 c1431 -741 1660 -862
1663 -883 2 -13 11 -28 20 -35 14 -10 12 -26 -12 -160 -15 -81 -28 -150 -30
-151 -1 -2 -22 -5 -47 -8 -72 -9 -4783 -316 -4800 -313 -12 2 110 287 556
1288 519 1166 574 1285 594 1282 12 -2 24 3 27 12 4 11 45 -6 187 -79 100 -52
929 -481 1842 -953z m45883 -1 c120 -16 134 -16 142 -2 7 14 645 -82 5397
-813 2963 -455 5398 -830 5410 -833 11 -3 23 -12 25 -21 4 -14 41 -23 178 -46
169 -29 173 -30 189 -59 29 -54 65 -90 107 -109 l42 -18 -43 -167 c-37 -141
-41 -168 -29 -177 12 -9 -167 -657 -1101 -4006 -614 -2197 -1120 -4009 -1126
-4027 -7 -21 -15 -30 -24 -27 -13 6 -30 -41 -96 -268 -22 -74 -24 -77 -64 -92
-22 -9 -43 -16 -47 -16 -3 0 -57 56 -118 125 -78 87 -118 124 -132 122 -28 -3
-8721 10102 -8706 10120 8 10 7 18 -4 31 -137 159 -218 266 -218 288 0 24 2
25 43 19 23 -3 102 -14 175 -24z m-539 -120 c34 -25 107 -44 137 -37 27 7 28
3 74 -204 20 -92 31 -126 43 -128 9 -2 18 -11 21 -20 14 -44 2846 -13918 2844
-13929 -2 -6 -2327 1861 -5168 4148 -3815 3073 -5164 4165 -5163 4178 2 13
-36 51 -120 122 -67 56 -127 107 -134 113 -8 8 -8 25 1 68 l11 56 143 113
c106 83 141 117 137 129 -4 13 771 608 3387 2600 1866 1421 3407 2594 3424
2607 27 20 33 21 38 8 4 -12 38 9 148 90 79 57 145 105 146 105 2 0 16 -9 31
-19z m382 -106 c83 -92 117 -124 130 -120 25 8 8703 -10078 8704 -10116 0 -18
33 -66 105 -153 73 -89 104 -134 102 -149 -1 -12 -5 -46 -9 -75 l-6 -53 -154
-91 c-115 -68 -153 -95 -150 -108 3 -12 -654 -386 -2977 -1693 -2534 -1425
-2982 -1674 -2988 -1659 -4 9 -647 3147 -1428 6972 -782 3825 -1423 6963
-1426 6973 -4 11 0 17 10 17 21 0 21 -5 -14 182 -32 173 -35 198 -21 198 6 0
60 -56 122 -125z m-43919 -707 c25 -14 38 -28 35 -38 -3 -11 40 -40 160 -105
191 -104 200 -116 83 -126 -208 -18 -421 -31 -425 -27 -3 2 7 70 22 150 25
141 26 145 49 140 17 -3 24 0 24 12 0 21 5 20 52 -6z m412 -354 c60 -75 169
-95 257 -48 l48 27 83 -43 c236 -122 6958 -3750 6987 -3772 21 -15 120 -465
1142 -5225 615 -2864 1125 -5238 1132 -5275 12 -58 12 -68 1 -68 -19 0 -19 2
18 -188 25 -130 29 -167 19 -170 -33 -11 -82 -68 -98 -113 -12 -33 -25 -51
-38 -54 -16 -4 -305 -35 -321 -35 -2 0 -4 -7 -4 -15 0 -8 -10 -17 -22 -19 -13
-3 -2759 -228 -6103 -501 -3344 -272 -6092 -497 -6107 -498 -21 -3 -28 1 -28
14 0 15 -8 16 -57 12 -32 -2 -112 -8 -178 -11 -116 -7 -121 -7 -141 15 -23 25
-24 18 25 309 15 91 15 103 1 111 -13 9 173 1044 1389 7734 772 4248 1407
7745 1413 7771 9 45 11 47 51 53 57 8 290 22 407 24 l95 1 29 -36z m-588 -11
c-2 -10 -638 -3507 -1413 -7770 -1215 -6693 -1410 -7753 -1425 -7753 -12 0
-20 -15 -28 -57 -6 -32 -22 -107 -34 -168 l-23 -110 -39 3 c-70 6 -122 -8
-171 -45 l-47 -36 -171 28 c-142 22 -176 25 -192 14 -17 -10 -561 88 -3559
640 -1947 359 -3551 655 -3566 658 -18 3 -28 12 -28 22 0 14 -26 22 -137 45
-244 49 -226 42 -251 86 l-22 39 29 73 c16 40 47 114 69 164 32 75 37 92 25
100 -11 7 583 1351 3045 6884 l3059 6875 44 8 c46 8 4668 314 4777 316 56 1
63 -1 58 -16z m-4899 -320 c-4 -15 -5865 -13191 -6054 -13611 -41 -89 -60
-122 -70 -118 -10 4 -34 -35 -86 -145 -55 -117 -73 -147 -79 -132 -5 10 -23
86 -42 168 -25 111 -37 151 -49 153 -9 2 -18 11 -21 20 -3 9 -580 2831 -1282
6271 -1089 5339 -1274 6256 -1262 6265 13 10 11 34 -16 180 -30 164 -30 169
-12 180 70 41 115 109 116 174 0 22 5 32 16 32 8 0 81 5 162 11 262 20 8565
566 8626 568 51 1 58 -1 53 -16z m86313 -1223 c0 -66 66 -151 136 -175 37 -12
39 -15 46 -67 3 -29 7 -98 7 -153 1 -113 7 -145 27 -145 8 0 14 -2 14 -4 0 -2
85 -3243 190 -7203 104 -3959 190 -7201 190 -7204 0 -4 -9 -9 -20 -12 -14 -4
-20 -14 -20 -32 0 -22 4 -26 19 -22 18 4 19 -4 25 -127 8 -162 166 -6228 166
-6348 0 -72 -3 -88 -15 -88 -13 0 -15 -26 -15 -174 l0 -174 -26 -6 c-15 -4
-28 -6 -29 -4 -2 2 -44 71 -94 155 -70 116 -95 150 -109 147 -14 -3 -329 536
-1595 2728 -1381 2389 -1577 2733 -1563 2744 23 17 9 44 -23 44 -15 0 -37 -7
-49 -16 -22 -15 -22 -17 -7 -34 9 -10 24 -16 34 -13 14 4 304 -490 1589 -2714
864 -1495 1574 -2726 1578 -2737 4 -10 2 -21 -4 -25 -7 -4 21 -64 73 -160 46
-85 82 -158 79 -162 -3 -5 -66 41 -141 102 -86 70 -141 108 -151 104 -16 -6
-45 14 -180 128 -51 44 -101 80 -110 81 -9 2 -17 7 -17 12 0 14 -15 34 -26 34
-6 0 -7 -5 -4 -11 11 -17 -307 222 -2868 2151 -2999 2260 -2787 2098 -2787
2130 0 24 10 29 168 87 92 34 178 64 192 67 22 5 362 -278 2649 -2204 1443
-1216 2627 -2213 2632 -2216 5 -3 9 -3 9 0 0 3 -1182 1001 -2627 2218 -1681
1416 -2621 2214 -2610 2216 9 2 17 7 17 12 0 16 -31 32 -55 28 -20 -4 -35 5
-74 46 -168 174 -190 193 -251 225 -36 19 -103 66 -150 105 -280 233 -6561
5524 -6588 5550 -18 17 -31 38 -29 46 3 10 -45 58 -134 135 l-138 120 0 49
c-1 66 -34 131 -82 163 -30 19 -38 30 -34 47 3 11 19 88 36 170 27 128 29 151
17 160 -12 9 116 574 832 3651 466 2002 861 3701 879 3776 25 108 35 136 48
135 13 -1 26 36 62 183 44 174 48 184 81 211 l35 28 90 -149 c66 -108 94 -147
105 -144 11 4 28 -15 56 -62 22 -38 1790 -3095 3929 -6796 2138 -3700 3890
-6725 3892 -6723 2 2 -1763 3061 -3922 6797 -3060 5294 -3925 6797 -3917 6809
7 12 -14 58 -89 194 -96 173 -116 230 -86 241 6 3 82 20 167 38 120 26 156 37
158 50 2 9 4 17 5 18 1 0 2263 445 5027 988 4425 869 5025 985 5028 970 2 -10
10 -15 20 -13 34 9 288 52 310 53 18 1 22 -4 22 -29z m474 -277 c69 -87 103
-122 117 -120 27 3 3481 -4479 3474 -4509 -3 -15 24 -60 101 -164 75 -104 103
-148 97 -159 -4 -9 -8 -48 -8 -88 0 -65 3 -76 33 -119 l34 -47 -34 -177 c-30
-152 -32 -179 -20 -187 12 -7 -125 -666 -877 -4203 -491 -2307 -895 -4205
-898 -4218 -3 -13 -16 -28 -29 -32 -13 -5 -24 -14 -24 -19 0 -5 -3 -16 -6 -25
-4 -12 0 -16 15 -16 12 0 21 -4 21 -9 0 -11 -1528 -7199 -1536 -7222 -2 -9
-12 -19 -22 -21 -13 -4 -23 -33 -42 -119 l-25 -114 -6 55 c-4 30 -7 88 -8 128
-1 56 -4 72 -16 72 -8 0 -17 10 -19 23 -2 12 -41 1442 -85 3177 -45 1735 -84
3207 -87 3271 -6 112 -6 116 15 122 15 3 21 13 21 32 0 22 -3 25 -20 20 -11
-3 -20 -4 -20 0 0 45 -371 14083 -376 14218 -6 168 -5 187 10 187 14 0 16 21
16 179 l0 180 43 24 c30 17 45 21 53 13 6 -6 55 -66 108 -133z m-11599 -1953
c23 -35 102 -80 139 -80 22 0 26 -4 21 -22 -15 -67 -65 -310 -65 -318 0 -6 7
-10 16 -10 10 0 14 -6 10 -17 -3 -10 -395 -1694 -871 -3743 -476 -2049 -871
-3742 -876 -3763 -7 -27 -15 -37 -24 -33 -16 6 -15 7 -60 -174 -42 -171 -39
-164 -92 -179 -26 -6 -62 -23 -79 -36 l-32 -24 -178 28 c-158 25 -180 27 -191
14 -10 -13 -885 139 -7005 1221 -3846 680 -7021 1241 -7056 1247 -49 9 -62 15
-60 27 3 14 -27 23 -172 52 -136 27 -176 39 -178 51 -2 13 33 30 160 77 101
37 163 65 163 73 0 8 5 17 12 22 10 6 15966 5513 16031 5532 16 5 22 2 22 -9
0 -9 1 -16 3 -16 1 0 76 25 167 55 91 30 167 54 170 55 3 0 14 -13 25 -30z
m-59495 -1573 c1510 -814 2819 -1521 2910 -1571 l165 -91 6 -67 c4 -48 13 -78
31 -106 l26 -39 -64 -144 c-78 -174 -79 -180 -64 -189 19 -12 -3181 -6866
-3204 -6864 -12 2 -39 -43 -97 -158 -70 -140 -82 -159 -102 -156 -20 3 -26 19
-58 148 -20 80 -39 157 -42 172 -4 14 -14 28 -23 30 -15 2 -195 831 -1144
5249 -620 2886 -1129 5256 -1132 5267 -5 19 -3 20 21 9 14 -6 1261 -677 2771
-1490z m25532 592 c94 -73 133 -98 141 -90 8 8 20 3 46 -16 20 -15 2347 -1888
5171 -4162 2824 -2274 5139 -4134 5146 -4134 6 0 11 -5 11 -11 1 -6 6 -254 12
-551 6 -297 15 -724 21 -950 11 -423 77 -4174 83 -4667 2 -238 1 -278 -12
-278 -31 0 -101 -52 -125 -93 -66 -112 -27 -242 91 -301 18 -9 38 -16 46 -16
10 0 16 -41 25 -187 28 -430 502 -9662 504 -9822 l3 -173 -1855 -753 c-1020
-413 -1866 -754 -1880 -758 l-25 -6 -607 2167 c-334 1192 -2018 7202 -3742
13356 -2618 9342 -3134 11191 -3122 11200 12 9 7 37 -29 179 -24 92 -41 167
-38 167 3 0 64 -46 135 -101z m-146 -196 c13 -47 21 -63 35 -63 13 0 22 -15
33 -52 53 -183 7458 -26615 7462 -26638 5 -24 1 -29 -38 -48 -53 -25 -6669
-2706 -6754 -2737 l-61 -22 -4079 4954 c-3025 3674 -4079 4960 -4077 4977 1
16 -32 66 -103 156 -57 72 -104 134 -104 136 0 3 9 22 20 44 11 22 20 48 20
58 0 11 6 24 13 30 6 5 129 22 272 36 790 79 6865 655 6920 656 6 0 10 -26 10
-58 0 -100 60 -178 158 -204 90 -24 189 24 235 112 60 120 -13 270 -146 296
-29 6 -32 10 -33 48 -6 202 127 17895 137 18306 l7 255 28 -90 c15 -49 36
-118 45 -152z m-190 -8678 c-36 -4702 -69 -8768 -72 -9035 l-7 -485 -29 88
c-22 64 -34 87 -47 87 -14 0 -281 860 -1537 4958 -1506 4911 -1520 4957 -1508
4999 12 40 3141 7956 3221 8149 l38 91 3 -151 c1 -83 -27 -3998 -62 -8701z
m-21678 6277 c169 -121 160 -116 175 -104 9 8 2211 -1629 7902 -5874 6451
-4810 7889 -5887 7887 -5904 -3 -18 -1213 -3084 -1258 -3188 l-19 -42 -45 6
c-25 3 -3330 464 -7345 1023 -6178 861 -7300 1019 -7303 1033 -4 19 -4 19
-196 49 l-148 23 -22 51 c-26 57 -84 113 -127 122 -47 9 -52 30 -47 204 5 151
4 159 -14 159 -18 0 -19 7 -13 138 3 75 69 2754 145 5952 77 3198 143 5875
146 5948 4 96 9 132 19 132 13 0 25 102 25 220 0 108 6 125 48 137 21 6 41 11
45 12 5 0 70 -43 145 -97z m-320 -139 c-3 -124 -2 -133 15 -133 18 0 18 -8 13
-142 -4 -79 -69 -2766 -146 -5973 -77 -3206 -143 -5881 -146 -5942 -4 -81 -10
-113 -18 -113 -13 0 -25 -110 -27 -254 -2 -140 -4 -139 -115 29 -68 103 -105
150 -117 150 -28 0 -2779 4443 -2765 4465 7 11 -11 51 -78 164 -72 122 -85
151 -76 165 66 93 64 203 -6 277 l-21 22 73 163 c59 132 71 166 60 174 -20 15
3181 6874 3205 6868 12 -3 32 29 81 127 74 151 74 151 68 -47z m39722 -2178
c136 -21 156 -22 166 -10 10 13 965 -153 6995 -1219 3841 -679 7015 -1240
7052 -1247 56 -9 68 -14 64 -28 -3 -14 21 -22 169 -50 147 -28 174 -36 174
-51 0 -13 -43 -36 -167 -92 -125 -56 -169 -80 -171 -95 -2 -15 -1278 -563
-6423 -2757 -3532 -1505 -6423 -2736 -6425 -2733 -5 4 -1724 7811 -1724 7827
0 6 7 10 15 10 11 0 14 7 10 23 -14 60 -65 321 -63 322 2 2 22 12 45 24 24 12
54 39 69 61 15 22 34 40 43 40 9 0 86 -11 171 -25z m-543 -34 c7 -10 37 -31
67 -46 l54 -26 43 -175 c36 -144 46 -174 61 -174 10 0 18 -3 18 -7 0 -5 387
-1765 860 -3913 498 -2263 855 -3909 850 -3914 -5 -5 -1709 -419 -3787 -921
-3212 -775 -3778 -909 -3781 -895 -3 14 -22 12 -170 -22 -92 -20 -170 -37
-174 -38 -5 0 -8 14 -8 30 0 33 -23 95 -44 120 -9 9 -16 57 -20 130 -15 294
-207 4551 -221 4910 -9 223 -27 641 -40 930 -19 412 -22 528 -12 537 10 10
5835 3290 5929 3339 24 12 32 13 38 4 6 -9 51 10 161 68 85 45 156 82 159 82
3 0 11 -9 17 -19z m15198 -2734 c12 -19 43 -44 75 -60 46 -23 65 -28 114 -25
l60 3 70 -153 c55 -118 75 -152 87 -149 14 4 433 -938 2175 -4887 1186 -2690
2162 -4901 2168 -4914 7 -18 7 -25 -4 -32 -11 -7 -1 -38 48 -157 34 -81 64
-155 67 -163 4 -11 -5 -19 -29 -28 -19 -7 -48 -28 -64 -46 l-30 -34 -172 40
c-141 33 -174 38 -181 27 -7 -11 -30 -8 -131 17 -68 17 -3864 993 -8435 2169
-6899 1775 -8313 2142 -8313 2155 0 13 -37 27 -170 65 -93 26 -170 50 -170 54
0 3 76 44 170 91 134 67 168 89 164 102 -3 12 9 23 48 41 29 14 2762 1326
6072 2916 4845 2326 6022 2887 6030 2877 9 -11 39 -1 161 55 83 38 155 69 160
69 6 -1 19 -15 30 -33z m485 -151 c80 -71 108 -91 118 -83 10 8 23 0 55 -30
23 -22 1406 -1301 3072 -2843 1667 -1542 3038 -2811 3047 -2820 13 -14 14 -20
5 -29 -9 -10 18 -41 117 -134 l128 -122 -22 -20 c-83 -74 -77 -223 14 -303
l37 -32 -74 -158 c-58 -123 -72 -159 -61 -165 20 -11 -1674 -3399 -1696 -3392
-12 4 -31 -25 -74 -107 -33 -62 -70 -132 -83 -154 l-24 -42 -41 22 c-39 20
-46 32 -118 186 -56 122 -81 166 -96 168 -15 2 -455 991 -2188 4920 -1291
2927 -2164 4918 -2157 4920 19 6 13 24 -54 183 -36 84 -65 157 -65 162 0 12
42 -21 160 -127z m-855 85 c-8 -7 -12088 -5810 -12132 -5828 -7 -3 -13 2 -13
11 0 9 -2 16 -3 16 -2 0 -72 -31 -156 -70 -83 -38 -155 -70 -160 -70 -5 0 -19
16 -31 34 -24 40 -73 73 -133 91 l-42 12 -68 158 c-52 121 -65 160 -55 167 7
4 -1 5 -19 2 -19 -4 -33 -2 -33 3 0 10 12812 5480 12840 5482 8 1 10 -2 5 -8z
m4345 -2951 c1818 -1530 3314 -2791 3325 -2802 20 -19 20 -19 -10 -13 l-30 6
26 -23 c15 -13 93 -79 175 -148 202 -171 210 -178 204 -183 -3 -3 -75 -27
-160 -55 l-155 -50 -34 40 c-42 49 -101 77 -161 78 -43 0 -50 5 -183 123 -95
85 -145 123 -161 122 -18 0 -757 678 -3022 2775 -3225 2984 -3164 2928 -3164
2943 0 6 10 1 23 -10 12 -11 1509 -1273 3327 -2803z m-38062 -2550 c831 -2709
1514 -4937 1517 -4952 6 -22 4 -28 -8 -28 -14 0 -15 -5 -2 -47 21 -70 18 -74
-15 -20 -20 30 -36 47 -47 45 -24 -4 -4107 6974 -4106 7017 2 38 1140 2921
1150 2912 1 -1 681 -2218 1511 -4927z m-45140 3395 c180 -30 162 -28 162 -10
0 8 3 15 8 15 4 0 1611 -297 3572 -659 3112 -574 3565 -660 3562 -674 -2 -10
-1 -17 2 -17 8 0 299 -60 317 -66 11 -3 18 -21 22 -54 8 -69 41 -126 92 -162
25 -18 45 -34 45 -37 -1 -3 -32 -73 -70 -156 -54 -118 -66 -152 -56 -160 19
-15 -8342 -17257 -8364 -17250 -11 3 -36 -36 -95 -150 -44 -84 -84 -155 -90
-157 -6 -2 -11 62 -13 175 -2 148 -5 177 -17 177 -11 0 -15 12 -15 46 0 25
131 4221 290 9324 160 5103 290 9283 290 9288 0 5 8 12 18 14 17 5 19 22 25
183 l7 178 40 35 c40 34 80 97 80 127 0 20 9 19 188 -10z m-398 -340 c0 -149
2 -175 15 -175 8 0 15 -5 15 -11 0 -6 -130 -4186 -290 -9289 -159 -5103 -290
-9299 -290 -9324 0 -38 -3 -46 -19 -46 -17 0 -19 -13 -25 -162 -7 -164 -13
-208 -25 -208 -4 0 -38 72 -76 160 -56 128 -73 160 -87 156 -13 -3 -27 19 -61
103 -1244 2968 -3844 9178 -3857 9211 -13 33 -15 49 -7 61 8 12 -6 56 -58 185
-63 157 -68 175 -69 249 -1 57 -7 91 -20 119 l-19 39 80 161 c64 127 78 164
68 172 -20 14 4472 8469 4500 8469 13 0 40 40 102 153 64 114 89 152 104 152
18 0 19 -9 19 -175z m21093 -82 c12 3 92 9 178 13 151 6 157 6 168 -14 10 -18
-3 -33 -114 -143 -90 -89 -124 -128 -120 -140 4 -13 -1170 -1113 -4827 -4520
-2658 -2477 -4854 -4523 -4880 -4548 -35 -32 -51 -41 -60 -33 -10 7 -48 -21
-149 -111 l-136 -122 -54 0 c-30 0 -65 -2 -78 -5 -23 -5 -27 2 -80 160 -42
124 -60 165 -71 163 -12 -3 -262 815 -1174 3844 -638 2117 -1165 3865 -1170
3886 -8 29 -7 40 2 46 11 6 2 49 -39 196 -45 165 -50 193 -40 220 6 17 11 39
11 48 0 9 10 19 23 22 17 4 305 35 323 35 2 0 4 7 4 15 0 8 1 15 3 16 1 0
2758 227 6127 503 5864 481 6125 501 6128 483 3 -14 10 -17 25 -14z m363 -257
c-45 -123 -55 -159 -46 -173 16 -26 -4850 -12579 -4874 -12575 -11 2 -21 -9
-30 -30 -8 -18 -37 -90 -66 -160 l-52 -128 -47 0 c-25 0 -66 -9 -89 -20 l-44
-20 -144 96 c-105 69 -150 93 -164 89 -15 -5 -528 345 -2177 1486 -1187 820
-2166 1498 -2175 1507 -11 9 -15 19 -9 26 6 7 -38 45 -135 115 l-143 104 16
31 c9 18 16 55 16 88 0 47 -5 67 -30 106 l-30 49 123 117 c91 87 123 123 121
139 -3 30 9741 9112 9760 9096 9 -8 44 17 140 104 70 63 130 113 132 111 2 -2
-22 -73 -53 -158z m452 -144 c12 2 342 -523 1324 -2107 719 -1160 1341 -2164
1381 -2231 59 -96 72 -123 61 -130 -11 -7 5 -40 77 -161 l90 -151 -20 -40
c-27 -53 -36 -113 -22 -152 11 -32 10 -32 -119 -157 -104 -101 -128 -129 -120
-142 7 -14 -693 -686 -3902 -3745 -2950 -2812 -3913 -3724 -3922 -3716 -10 7
-43 -18 -132 -99 -65 -60 -120 -108 -122 -107 -1 2 22 72 53 155 30 83 55 154
55 156 0 3 -7 5 -15 5 -12 0 -13 5 -4 28 5 15 1102 2845 2436 6290 1969 5080
2431 6262 2445 6262 11 0 23 13 31 33 85 211 124 296 133 293 6 -2 26 -1 45 3
l34 8 98 -149 c69 -106 103 -148 115 -146z m23016 -4107 c1620 -2771 2031
-3481 2021 -3490 -11 -8 -2 -31 47 -118 33 -59 59 -110 57 -112 -2 -1 -50 30
-106 70 -69 50 -109 73 -126 72 -19 -2 -647 462 -2626 1937 -2464 1838 -2600
1941 -2595 1965 8 32 1219 3099 1248 3159 20 42 20 42 32 20 7 -13 928 -1589
2048 -3503z m-36505 3126 c43 -135 57 -168 70 -164 13 3 209 -638 1176 -3844
637 -2116 1164 -3865 1169 -3886 8 -29 7 -40 -2 -46 -11 -6 -2 -47 37 -189
l50 -181 -20 -37 c-11 -22 -19 -59 -19 -86 l0 -47 -140 -121 c-98 -85 -139
-126 -137 -140 3 -27 -10682 -8863 -10700 -8848 -9 7 -17 7 -25 1 -7 -5 -70
-55 -139 -111 -70 -55 -129 -98 -133 -95 -12 13 -5 34 64 182 55 119 68 155
60 169 -16 25 8335 17246 8365 17250 15 2 41 44 102 166 76 151 85 164 120
179 21 8 40 15 43 16 3 0 29 -75 59 -168z m49926 -3010 l7 -203 -33 7 c-19 4
-37 9 -40 11 -4 2 -9 34 -13 71 -7 72 -57 2732 -55 2918 1 98 115 -2290 134
-2804z m8055 1440 c0 -5 -10 -13 -21 -16 -13 -4 -17 -10 -11 -14 11 -7 122
-294 122 -315 0 -7 -11 -19 -25 -26 -43 -23 -78 -85 -83 -148 -3 -31 -9 -60
-15 -63 -5 -4 -83 -19 -173 -35 -145 -26 -163 -31 -158 -46 3 -10 2 -18 -2
-18 -4 0 -1626 -263 -3603 -585 -1978 -322 -3602 -585 -3609 -585 -24 0 -12
30 16 37 109 28 7540 1822 7550 1822 6 1 12 -3 12 -8z m20916 -618 c-4 -4 -11
-1 -16 7 -16 25 -11 35 7 17 9 -9 13 -20 9 -24z m-20864 -86 l37 -32 -90 -143
c-49 -79 -89 -147 -89 -152 0 -4 5 -10 11 -12 7 -2 -1529 -2365 -3412 -5251
-2661 -4078 -3428 -5247 -3441 -5243 -13 3 -44 -35 -119 -146 -102 -149 -103
-149 -138 -146 -41 3 -35 -18 -61 231 -11 101 -15 117 -29 112 -14 -4 -40 259
-251 2563 -129 1412 -236 2557 -238 2544 -2 -13 101 -1166 229 -2564 220
-2397 232 -2541 215 -2550 -13 -8 -16 -18 -12 -46 3 -21 8 -77 11 -127 3 -49
8 -114 11 -143 5 -49 3 -55 -30 -94 -43 -49 -60 -106 -52 -166 l6 -42 -56 -25
c-31 -14 -60 -25 -65 -25 -11 0 -17 56 -28 314 -36 774 -221 4910 -230 5146
-6 157 -9 323 -7 370 4 64 3 75 -4 45 -7 -33 -8 -28 -4 25 3 36 0 113 -5 170
-6 58 -20 301 -31 540 -11 239 -22 460 -25 490 -6 58 -119 2566 -131 2897 l-7
192 24 5 c39 9 350 66 360 66 5 0 9 8 9 18 0 15 389 81 3612 605 3130 509
3614 586 3624 573 9 -13 30 -12 170 9 87 13 168 24 179 24 11 0 37 -14 57 -32z
m625 -36 c26 -7 35 -6 42 6 7 14 1122 -270 8442 -2154 6995 -1800 8434 -2173
8433 -2186 -1 -9 6 -18 15 -21 9 -3 84 -24 168 -47 l151 -42 7 -46 c9 -63 48
-125 94 -153 l39 -23 -86 -154 c-66 -118 -82 -155 -72 -161 10 -6 1 -29 -42
-102 -31 -51 -754 -1270 -1608 -2708 -854 -1438 -1557 -2620 -1562 -2627 -5
-6 -15 -10 -23 -7 -8 3 -42 -43 -95 -128 -106 -169 -100 -163 -136 -145 -54
27 -99 29 -163 7 l-61 -20 -139 104 c-95 72 -142 101 -149 94 -6 -6 -16 -7
-25 -2 -8 5 -2998 2340 -6645 5189 -5230 4086 -6628 5183 -6619 5193 7 9 7 16
1 20 -20 14 -204 164 -204 167 0 3 176 -38 237 -54z m-192 -90 c87 -66 123
-87 132 -80 8 8 18 7 31 -3 10 -7 2998 -2341 6639 -5186 5164 -4035 6620
-5177 6616 -5191 -3 -13 30 -45 129 -126 l134 -108 -14 -46 c-8 -25 -15 -51
-17 -57 -2 -6 -74 -19 -175 -30 -155 -16 -171 -20 -167 -36 4 -12 0 -18 -12
-18 -21 0 -8878 -807 -8943 -815 -41 -5 -48 -3 -48 11 0 18 -14 18 -271 -2
l-76 -6 -7 43 c-14 96 -91 176 -178 186 l-44 5 -60 169 c-48 139 -62 168 -76
164 -12 -5 -20 6 -34 47 -9 29 -831 2479 -1826 5443 -1493 4451 -1807 5394
-1798 5410 10 19 -12 107 -80 308 -12 35 -8 33 145 -82z m-155 -152 c26 -75
37 -95 50 -92 14 4 321 -904 1843 -5440 1005 -2994 1827 -5447 1827 -5451 0
-3 -7 -6 -15 -6 -8 0 -15 -1 -15 -2 0 -2 25 -79 55 -173 l53 -170 -27 -17
c-37 -24 -81 -106 -81 -152 0 -22 -5 -36 -12 -37 -7 0 -86 0 -175 1 -147 1
-163 0 -163 -16 0 -15 -11 -16 -102 -10 -57 4 -2342 108 -5078 231 -2736 124
-5008 228 -5047 231 -51 4 -73 10 -73 19 0 14 -28 18 -234 32 l-108 8 -19 49
c-10 27 -32 63 -48 80 l-29 31 85 135 c62 97 87 145 88 170 1 29 617 979 3350
5165 1841 2822 3379 5178 3418 5236 50 78 74 105 86 102 12 -3 44 37 121 151
92 136 109 155 135 158 33 3 30 10 115 -233z m-22563 -2211 c1418 -1057 2590
-1931 2605 -1943 19 -17 24 -25 15 -34 -6 -6 -9 -12 -6 -14 2 -2 56 -43 119
-92 150 -115 147 -112 113 -108 -290 37 -328 40 -339 25 -10 -13 -393 38
-3185 427 -1745 243 -3175 443 -3176 445 -6 6 47 145 621 1596 572 1446 642
1620 652 1620 2 0 1164 -865 2581 -1922z m14252 137 c23 -489 43 -966 46
-1060 3 -93 10 -266 16 -384 6 -117 9 -215 7 -217 -2 -1 -41 407 -86 909 -74
826 -89 1039 -107 1507 -3 80 -8 170 -11 200 l-6 55 44 15 43 15 7 -75 c4 -41
25 -475 47 -965z m-25525 -410 c4010 -559 7305 -1018 7323 -1021 l31 -6 -13
-41 c-10 -35 -412 -1051 -530 -1343 l-37 -91 -42 10 c-63 14 -144 -12 -188
-62 -20 -21 -37 -44 -40 -52 -4 -12 -127 13 -335 67 -17 5 -23 2 -23 -11 0
-13 -6 -16 -22 -11 -1339 347 -13455 3521 -13460 3525 -15 13 4 51 25 51 11 0
3301 -457 7311 -1015z m-7515 959 c122 -29 155 -34 161 -23 7 10 19 10 60 1
36 -8 12537 -3278 13393 -3503 24 -6 37 -16 37 -27 0 -14 36 -27 175 -66 96
-27 175 -53 175 -57 0 -3 -69 -25 -152 -48 -84 -24 -161 -45 -170 -47 -10 -3
-18 -13 -18 -22 0 -15 -1022 -279 -6552 -1693 -5588 -1429 -6553 -1673 -6556
-1659 -3 15 -17 13 -139 -16 -74 -18 -152 -35 -172 -39 -37 -6 -38 -5 -49 33
-11 36 -23 50 -113 125 -12 10 -18 53 -28 182 -7 93 -15 173 -17 177 -3 4 -11
8 -17 8 -9 0 -59 790 -195 3093 -101 1700 -185 3107 -188 3125 -4 27 -2 32 15
32 18 0 19 5 16 68 -3 37 -6 114 -9 172 l-4 105 60 28 c38 19 67 41 81 63 13
20 28 32 37 29 8 -2 84 -21 169 -41z m-482 -46 c21 -12 39 -23 41 -24 2 -1 31
-316 32 -346 0 -5 6 -8 14 -8 10 0 17 -15 20 -42 3 -24 88 -1428 188 -3120
166 -2814 180 -3079 166 -3090 -14 -11 -15 -33 -10 -176 4 -90 5 -167 2 -171
-3 -4 -20 -13 -39 -19 -81 -28 -141 -108 -141 -189 0 -47 11 -44 -206 -65
-113 -10 -138 -15 -141 -29 -4 -13 -20 -19 -61 -23 -32 -4 -1792 -152 -3912
-331 -2120 -178 -3879 -327 -3907 -330 -46 -6 -53 -4 -53 10 0 16 -11 17 -117
11 -65 -4 -145 -9 -179 -12 -53 -5 -62 -4 -68 12 -6 14 20 45 119 141 95 92
125 127 121 141 -6 16 1378 1339 7681 7345 93 89 128 117 142 112 14 -4 50 23
142 109 68 63 125 115 126 116 1 0 19 -10 40 -22z m33450 -780 c-3 -8 -6 -5
-6 6 -1 11 2 17 5 13 3 -3 4 -12 1 -19z m87 -953 c46 -501 79 -925 86 -1090 6
-148 15 -334 21 -413 7 -112 221 -4817 279 -6136 9 -213 9 -260 -2 -267 -7 -5
-14 -5 -15 -1 -6 19 -406 7725 -418 8037 -3 88 -12 279 -20 425 -8 146 -14
276 -13 290 l1 25 4 -25 c1 -14 36 -394 77 -845z m-14917 -661 c2796 -389
3152 -441 3148 -455 -5 -14 8 -18 72 -28 42 -6 78 -13 80 -15 6 -6 -140 -20
-3402 -331 -3326 -316 -3524 -335 -3587 -335 -33 0 -39 4 -51 33 -8 17 -26 43
-40 57 l-25 25 53 140 c69 186 480 1224 513 1299 24 55 27 58 56 53 17 -2
1450 -202 3183 -443z m41142 -516 c11 -35 34 -109 51 -165 20 -67 36 -103 45
-103 8 0 16 -4 19 -8 4 -7 1784 -6314 1802 -6386 4 -19 2 -31 -6 -36 -10 -6
-4 -44 29 -177 39 -156 41 -169 25 -178 -45 -26 -94 -80 -110 -121 -20 -53
-11 -52 -204 -19 -172 29 -160 29 -160 10 0 -8 -3 -15 -7 -15 -5 1 -1095 207
-2423 458 -2076 394 -2415 460 -2412 474 2 13 -11 19 -55 28 -32 6 -109 23
-171 36 -63 13 -115 24 -118 24 -2 0 -4 13 -4 29 0 16 -5 42 -10 56 -9 24 0
45 81 188 67 120 88 166 81 177 -14 22 3215 5459 3238 5453 13 -3 42 37 116
156 98 160 110 173 166 180 3 1 15 -27 27 -61z m169 -78 c51 -64 82 -96 89
-89 6 6 17 1 30 -13 16 -17 15080 -19979 15203 -20145 l23 -33 -23 -20 c-13
-11 -26 -20 -29 -20 -5 0 -12183 11934 -12789 12532 -160 159 -220 224 -213
232 7 9 -15 38 -80 102 -50 49 -104 106 -121 127 -30 37 -30 38 -14 77 39 98
1 209 -88 260 -28 17 -58 30 -66 30 -10 0 -23 26 -38 78 -77 256 -83 272 -100
272 -14 0 -171 546 -923 3213 -768 2721 -904 3214 -892 3224 12 10 9 30 -20
142 -19 72 -33 131 -31 131 2 0 39 -45 82 -100z m-89661 -817 c53 -119 74
-158 88 -158 27 0 3944 -9356 3922 -9369 -12 -8 -5 -32 43 -150 83 -205 80
-194 56 -241 -16 -30 -21 -57 -20 -112 l0 -72 -156 -68 c-118 -52 -155 -72
-152 -84 2 -11 -10 -22 -35 -32 -21 -8 -1887 -776 -4146 -1706 -2260 -930
-4114 -1691 -4122 -1691 -7 0 -15 5 -17 10 -2 6 -76 -17 -172 -55 l-170 -65
-25 22 c-14 13 -29 25 -33 28 -4 3 16 80 45 171 44 137 51 168 40 175 -21 13
4513 13173 4536 13167 13 -3 30 35 81 172 45 123 69 175 80 175 8 0 29 9 45
19 17 11 33 20 36 20 4 1 38 -70 76 -156z m44273 43 c20 -18 43 -35 51 -38 10
-3 7 -37 -19 -170 -37 -192 -37 -188 -17 -188 11 0 14 -7 10 -22 -3 -13 -662
-3126 -1465 -6918 -803 -3792 -1465 -6916 -1471 -6942 -8 -37 -16 -48 -30 -48
-11 0 -19 -7 -19 -16 0 -14 -70 -316 -74 -321 -1 -1 -24 4 -51 13 -28 8 -64
13 -82 12 -28 -3 -44 10 -161 124 -96 94 -134 126 -148 122 -15 -4 -1097 1112
-4984 5142 -2731 2831 -5021 5205 -5089 5276 -91 94 -120 132 -113 141 8 9
-12 36 -74 102 -46 50 -100 109 -120 132 -35 41 -35 42 -20 72 17 32 30 37
231 91 128 34 143 40 147 58 4 14 1219 328 6553 1692 4531 1158 6550 1670
6553 1662 6 -18 34 -14 182 23 74 18 143 34 154 34 10 1 35 -14 56 -33z m302
-202 c67 -104 97 -144 109 -141 9 2 22 -5 29 -17 71 -113 3074 -5044 3078
-5055 3 -7 -1 -16 -7 -20 -9 -6 13 -51 73 -154 87 -146 96 -167 74 -167 -28 0
-89 -55 -113 -103 -30 -61 -32 -125 -6 -182 17 -38 65 -88 92 -97 7 -2 -33
-65 -95 -148 -59 -80 -102 -146 -96 -148 5 -2 10 -8 10 -14 0 -7 -5822 -7574
-6121 -7955 -42 -54 -59 -69 -67 -61 -7 7 -13 10 -15 7 -6 -8 -180 -224 -188
-232 -7 -9 -1 25 41 243 15 81 16 96 4 105 -12 8 224 1138 1456 6955 809 3820
1473 6953 1476 6963 3 9 12 17 20 17 18 0 14 -12 60 188 37 161 38 162 65 162
25 0 38 -16 121 -146z m2873 -3350 c1474 -1791 3311 -4022 4082 -4958 1360
-1650 1401 -1701 1380 -1716 -31 -23 -647 -270 -678 -273 -27 -2 -486 508
-3621 4016 -114 128 -157 183 -153 196 4 12 -31 60 -120 163 -82 97 -125 154
-125 170 0 74 -50 153 -120 188 -30 15 -57 50 -141 184 -78 125 -109 166 -124
166 -17 0 -331 510 -1569 2541 l-1549 2542 24 18 c13 10 26 18 29 18 3 0 1211
-1465 2685 -3255z m-31607 2792 c1 -2 7 -79 12 -172 14 -234 397 -8433 406
-8675 l7 -195 -44 -17 c-139 -53 -185 -225 -89 -332 18 -20 16 -23 -73 -140
-179 -235 -4169 -5360 -4191 -5383 l-22 -22 -3564 2624 c-2689 1980 -3565
2630 -3565 2645 0 14 -39 50 -125 116 -69 53 -128 100 -132 103 -4 4 4 30 18
57 20 40 25 62 22 107 l-3 56 130 112 c90 78 130 119 130 134 0 16 1299 1095
5275 4384 2901 2399 5306 4387 5344 4417 45 37 74 54 86 50 12 -4 59 27 150
99 l132 104 47 -35 c25 -19 47 -36 49 -37z m470 -165 c15 -8 27 -9 35 -3 8 7
322 -205 1052 -710 572 -395 1552 -1073 2177 -1506 858 -593 1137 -791 1133
-803 -5 -16 6 -25 212 -174 58 -42 62 -47 53 -71 -17 -43 -12 -124 11 -171
l21 -43 -113 -136 c-82 -101 -108 -138 -99 -144 11 -7 11 -12 -1 -27 -8 -10
-706 -829 -1552 -1821 -846 -992 -1537 -1806 -1534 -1808 2 -2 702 815 1556
1816 1177 1380 1556 1818 1566 1810 9 -8 42 23 130 122 72 81 125 132 134 130
9 -1 32 -5 52 -8 l36 -6 28 -175 c24 -148 31 -174 45 -170 14 4 115 -675 821
-5522 700 -4801 803 -5526 789 -5529 -14 -3 -14 -19 5 -177 12 -96 18 -175 14
-175 -4 0 -14 -3 -22 -6 -9 -3 -62 38 -146 116 -97 90 -137 121 -151 117 -15
-4 -466 423 -1977 1870 -1883 1803 -1959 1877 -1976 1927 -24 72 -907 3792
-907 3822 0 13 -7 41 -15 61 -13 35 -1685 7062 -1755 7378 -17 77 -33 148 -36
158 -4 14 1 17 33 17 21 1 52 7 68 14 29 12 34 10 160 -74 72 -48 140 -92 153
-99z m475 -3806 c470 -1980 857 -3615 861 -3633 5 -31 -15 -56 -465 -585 -535
-626 -538 -630 -554 -617 -7 6 -17 2 -30 -13 -10 -12 -63 -72 -117 -133 l-99
-112 -33 10 -33 11 -6 106 c-10 168 -407 8646 -406 8656 2 20 41 -145 882
-3690z m12877 1169 c0 -15 10 -16 83 -11 45 4 128 10 184 13 l101 7 41 -34
c22 -19 41 -38 41 -44 0 -5 -36 -76 -79 -158 -62 -115 -76 -149 -65 -155 11
-6 -441 -815 -1917 -3432 -1062 -1884 -2584 -4583 -3382 -5998 -1123 -1993
-1454 -2572 -1467 -2569 -12 3 -39 -34 -104 -144 -49 -82 -94 -149 -101 -149
-8 0 -16 12 -19 28 -7 32 -56 328 -56 335 0 2 -8 7 -17 9 -16 4 -116 677 -821
5519 -442 3033 -803 5517 -802 5522 0 4 7 7 15 7 12 0 15 8 10 33 -11 70 -35
273 -35 304 0 22 6 36 21 43 27 15 79 98 79 126 0 25 8 27 180 44 164 16 180
19 180 35 0 8 3 15 8 16 4 0 1773 150 3932 333 2159 184 3940 334 3958 335 23
1 32 -3 32 -15z m948 -311 c11 -10 2302 -2384 5091 -5276 3945 -4090 5070
-5262 5061 -5272 -8 -10 16 -42 108 -141 l119 -128 -24 -26 c-31 -33 -57 -121
-48 -163 10 -44 39 -98 67 -124 55 -51 153 -68 226 -38 46 20 39 28 122 -154
50 -108 69 -140 81 -137 11 2 22 -8 31 -28 9 -17 1170 -2624 2582 -5794 1982
-4449 2565 -5766 2557 -5776 -12 -14 -6 -33 43 -149 9 -20 15 -37 13 -37 -2 0
-28 34 -57 75 -39 55 -58 74 -70 70 -13 -4 -1772 2533 -7977 11507 -4378 6332
-7968 11525 -7978 11541 -17 26 -17 28 0 47 22 24 27 25 53 3z m54422 -1549
c0 -14 8 -16 60 -10 33 4 60 5 60 2 0 -3 -24 -13 -54 -22 -36 -11 -53 -22 -52
-33 1 -16 178 33 -10173 -2825 -3124 -863 -3687 -1016 -3706 -1006 -17 9 -44
6 -140 -19 -65 -17 -120 -29 -123 -27 -2 3 38 32 90 67 119 79 130 89 119 103
-7 8 575 398 1940 1301 1073 710 1962 1296 1976 1303 17 9 29 10 35 4 7 -7 64
24 172 92 145 92 165 102 199 98 56 -6 119 15 170 57 l45 37 163 18 c201 21
209 23 209 41 0 8 3 15 8 15 4 1 2014 185 4467 409 2453 225 4477 409 4498
410 28 1 37 -3 37 -15z m963 -28 c113 -20 129 -21 137 -7 7 13 332 -46 2352
-428 1288 -244 2378 -450 2421 -459 63 -12 77 -18 77 -33 0 -11 6 -19 13 -19
33 1 357 -75 357 -83 0 -25 57 -81 104 -103 56 -26 103 -29 156 -10 l35 13
131 -123 c101 -95 133 -121 143 -111 9 9 49 -25 174 -150 89 -88 3011 -2954
6492 -6369 3482 -3414 6333 -6212 6337 -6218 3 -6 -2 -22 -13 -35 l-19 -23
-194 143 c-106 79 -4346 3222 -9420 6984 -7154 5304 -9225 6844 -9222 6858 3
13 -27 42 -111 107 -65 51 -107 90 -97 90 11 -1 77 -11 147 -24z m-16166 -567
c2784 -126 5064 -229 5067 -229 3 0 6 -7 6 -15 0 -20 17 -22 214 -33 125 -7
172 -14 183 -24 16 -17 16 -17 -180 -152 -74 -51 -96 -71 -88 -80 16 -19
-3924 -2623 -3942 -2607 -10 8 -48 -11 -157 -80 l-143 -91 -60 31 c-39 20 -74
31 -101 31 -37 0 -115 -30 -157 -61 -13 -10 -44 3 -170 70 -85 45 -155 77
-157 71 -2 -5 -9 -10 -15 -10 -6 0 -1270 710 -2809 1577 -2158 1216 -2798
1582 -2795 1594 3 12 -35 39 -144 104 -82 48 -149 94 -149 102 0 12 31 14 185
11 171 -3 185 -2 185 15 0 15 8 17 83 11 45 -3 2360 -108 5144 -235z m-5926
137 c35 -32 37 -38 43 -117 5 -62 121 -3873 123 -4039 0 -14 68 -2264 151
-5000 160 -5256 160 -5265 152 -5274 -3 -3 -16 228 -28 512 -13 284 -32 690
-42 902 -11 212 -26 538 -35 725 -8 187 -20 426 -25 530 -6 105 -80 1731 -165
3615 -85 1884 -162 3574 -170 3755 -110 2419 -184 4099 -187 4219 l-3 149 65
28 c36 15 70 28 75 28 6 0 26 -15 46 -33z m-236 -78 c8 -48 187 -4039 182
-4063 -2 -11 -5 -3 -6 18 0 20 -46 907 -101 1970 -54 1062 -101 1969 -103
2014 -3 45 -2 85 1 88 12 12 21 3 27 -27z m-70 -90 c4 -72 574 -11089 600
-11608 3 -63 14 -290 25 -505 11 -214 24 -489 30 -610 6 -121 51 -1001 100
-1955 60 -1174 96 -1958 110 -2425 11 -379 20 -710 19 -735 0 -43 -2 -41 -26
43 -20 68 -30 87 -44 87 -13 0 -21 12 -30 43 -16 59 -3728 13308 -3735 13330
-4 12 0 17 15 17 12 0 21 4 21 9 0 24 -14 41 -34 41 -20 0 -49 98 -415 1408
-217 774 -396 1412 -398 1418 -2 5 18 20 44 33 72 33 3686 1499 3700 1500 7 1
13 -31 18 -91z m-15381 -226 c39 -86 71 -159 73 -161 1 -2 8 1 15 7 10 8 212
-460 925 -2141 502 -1184 915 -2159 919 -2169 3 -10 0 -18 -9 -20 -12 -2 -1
-38 50 -166 l66 -163 -26 -27 c-37 -40 -58 -87 -60 -136 l-2 -44 -163 -68
c-126 -54 -162 -73 -159 -85 7 -25 -8163 -3264 -8179 -3243 -9 12 -33 6 -144
-36 -73 -28 -134 -49 -136 -47 -2 2 38 59 88 127 64 86 92 133 93 152 0 21
696 931 3075 4019 1691 2195 3080 3997 3086 4005 6 8 18 12 27 8 11 -4 48 36
132 141 69 86 128 150 143 157 15 5 45 18 67 28 22 10 42 19 45 19 3 0 36 -70
74 -157z m213 -47 c7 11 475 -507 1889 -2088 l1880 -2102 -25 -16 c-24 -14
-1303 -534 -1510 -613 -98 -38 -96 -38 -122 6 -16 29 -97 70 -151 77 l-52 6
-71 158 c-54 122 -74 157 -86 154 -25 -7 -1856 4310 -1840 4336 9 14 4 36 -25
105 -20 48 -38 94 -41 102 -3 8 29 -20 71 -63 59 -60 77 -74 83 -62z m11789
-2575 c217 -773 394 -1408 394 -1412 0 -5 -7 -8 -15 -8 -9 0 -15 -9 -15 -25 0
-20 5 -25 24 -25 15 0 27 -7 30 -17 29 -100 3746 -13373 3746 -13377 0 -3 -7
-6 -15 -6 -8 0 -15 -1 -15 -2 0 -2 20 -79 44 -171 25 -93 39 -164 33 -158 -7
6 -59 66 -117 135 -70 83 -110 123 -121 120 -8 -2 -26 7 -39 21 -13 13 -2396
2906 -5295 6427 -4012 4873 -5268 6404 -5254 6406 37 7 5 52 -37 52 -26 1 -53
31 -234 251 -113 138 -238 291 -278 339 l-73 89 29 15 c32 17 6733 2734 6772
2746 14 5 29 7 34 6 5 -1 186 -634 402 -1406z m-42543 413 c25 -91 856 -3593
863 -3638 3 -22 8 -44 11 -50 3 -5 -18 13 -48 41 -60 57 -1714 1638 -1769
1690 -27 27 -32 36 -22 46 10 10 -14 39 -114 139 l-127 127 17 41 c22 57 20
97 -8 158 l-24 51 100 124 c56 67 105 129 111 136 6 8 6 16 -1 25 -7 9 120
164 487 594 273 319 499 579 502 577 3 -2 13 -29 22 -61z m46184 -1735 c-2
-24 -4 -5 -4 42 0 47 2 66 4 43 2 -24 2 -62 0 -85z m-47244 -169 c36 -33 56
-44 64 -37 13 10 4 19 1118 -1048 691 -663 751 -723 767 -769 13 -36 1274
-5335 1311 -5505 3 -14 221 -932 485 -2040 264 -1108 483 -2039 487 -2069 5
-41 4 -52 -5 -49 -7 2 -347 879 -756 1948 -652 1704 -742 1946 -728 1957 23
17 13 48 -15 48 -22 0 -113 234 -1437 3699 -778 2035 -1414 3703 -1414 3707 0
4 6 9 14 11 10 2 -2 43 -45 163 -32 88 -58 164 -59 169 0 4 36 -25 81 -65 44
-41 104 -95 132 -120z m-339 162 l39 -6 66 -163 c51 -127 69 -162 82 -159 13
3 282 -691 1432 -3701 1237 -3238 1414 -3707 1400 -3717 -23 -17 -13 -50 16
-50 22 0 67 -114 742 -1880 853 -2230 771 -2009 754 -2021 -11 -7 -2 -41 46
-173 32 -90 59 -167 59 -170 0 -3 -8 -11 -19 -18 -16 -10 -38 2 -161 89 -103
73 -144 97 -150 88 -5 -8 -13 -9 -21 -4 -20 12 -3922 2884 -3934 2895 -6 7 -5
13 4 19 25 15 -6 41 -45 38 -30 -3 -259 163 -2363 1712 l-2330 1715 18 30 c15
26 3969 5109 4190 5387 77 98 88 108 111 102 14 -4 43 -10 64 -13z m-12070
-20 c41 -19 60 -22 109 -18 l59 5 149 -105 c112 -79 152 -103 162 -95 10 8
880 -627 3577 -2614 2876 -2117 3565 -2628 3563 -2645 -3 -17 -2250 -2916
-2301 -2967 -19 -19 -146 22 -6833 2205 -3748 1223 -6899 2251 -7002 2284
-153 49 -188 64 -185 77 3 14 -29 28 -161 74 -90 32 -165 59 -166 60 -2 2 -5
18 -7 36 l-3 33 155 68 c115 51 155 73 155 86 0 14 850 367 4140 1721 2277
937 4148 1707 4159 1710 10 3 22 0 26 -7 7 -10 48 3 177 54 92 36 170 65 173
63 3 -1 27 -12 54 -25z m49043 -354 c244 -298 270 -333 251 -340 -20 -7 -20
-8 -3 -27 10 -11 30 -20 44 -20 22 0 748 -877 5321 -6431 2912 -3537 5297
-6436 5299 -6442 3 -9 0 -9 -11 0 -8 7 -18 10 -22 6 -3 -4 -35 20 -69 53 -34
33 -107 101 -162 149 -100 89 -13039 12004 -13231 12185 -66 61 -100 100 -97
110 3 8 8 36 10 62 6 54 -6 49 183 68 155 16 170 19 170 36 0 14 -16 15 -122
9 -68 -4 -121 -5 -118 -2 6 6 2 5 820 336 377 153 695 280 707 283 18 5 53
-30 224 -221 168 -188 198 -227 180 -229 -41 -6 -12 -41 43 -51 29 -5 741
-798 5710 -6356 3123 -3492 5696 -6368 5719 -6390 l40 -40 -29 36 c-16 20
-2585 2895 -5709 6388 -3124 3493 -5681 6356 -5683 6361 -2 6 3 10 12 10 9 0
16 4 16 10 0 15 -46 41 -62 35 -10 -4 -79 66 -222 225 -114 127 -206 232 -204
233 1 1 13 8 25 14 24 14 602 250 643 263 14 5 32 8 40 9 8 0 137 -149 287
-332z m10620 251 c-3 -7 -5 -2 -5 12 0 14 2 19 5 13 2 -7 2 -19 0 -25z m0 -50
c-3 -7 -5 -2 -5 12 0 14 2 19 5 13 2 -7 2 -19 0 -25z m0 -50 c-3 -8 -6 -5 -6
6 -1 11 2 17 5 13 3 -3 4 -12 1 -19z m-68557 -3674 c84 -25 158 -48 166 -51 9
-3 14 1 14 12 0 12 5 15 23 10 51 -16 13972 -4558 13975 -4560 2 -2 -2 -13 -8
-25 -12 -22 -3730 -4803 -3968 -5102 -123 -155 -124 -156 -154 -146 -45 16
-139 5 -174 -19 l-30 -21 -131 124 c-102 97 -134 121 -140 110 -12 -21 -9516
9408 -9508 9433 3 11 -32 55 -115 143 -66 69 -120 129 -120 132 0 10 16 7 170
-40z m18939 -3359 c1943 -1431 2291 -1690 2277 -1700 -14 -11 -14 -13 2 -29
13 -11 28 -14 48 -10 26 5 219 -135 2004 -1449 1503 -1107 1975 -1460 1975
-1475 0 -14 34 -47 113 -107 61 -47 112 -88 112 -89 0 -2 -62 15 -137 39 -111
34 -139 39 -141 28 -3 -10 -11 -13 -28 -9 -41 11 -6219 2027 -6223 2032 -3 2
4 11 15 18 18 14 18 15 -9 21 -15 4 -42 4 -60 1 -17 -4 -36 -7 -42 -8 -5 0
-1041 336 -2302 747 -2205 720 -2291 749 -2280 769 16 26 2252 2903 2285 2938
l25 27 36 -28 c20 -15 1068 -787 2330 -1716z m-2443 -1985 c1232 -402 2261
-738 2288 -747 48 -15 49 -16 25 -29 l-24 -12 30 -12 c23 -9 38 -9 63 0 30 11
234 -54 3167 -1011 2498 -815 3135 -1027 3135 -1040 0 -18 8 -21 208 -91 68
-23 120 -43 115 -45 -22 -6 -14938 -1620 -15191 -1644 -194 -18 -192 -10 18
87 80 36 147 68 149 70 2 2 1 10 -2 18 -6 16 -25 9 -269 -94 -103 -44 -102
-27 5 115 137 181 3987 5127 4006 5147 9 9 21 17 27 17 6 1 1019 -328 2250
-729z m52571 -1027 c-2 -27 -3 -5 -3 47 0 52 1 74 3 48 2 -27 2 -69 0 -95z
m10 -245 c-2 -13 -4 -5 -4 17 -1 22 1 32 4 23 2 -10 2 -28 0 -40z"/>
<path d="M77795 39157 c53 -37 8236 -4759 8240 -4755 5 4 -8239 4768 -8251
4768 -5 0 0 -6 11 -13z"/>
<path d="M99615 69619 c-56 -13 -107 -52 -136 -102 -19 -34 -24 -56 -23 -111
l0 -69 -59 -46 c-206 -159 -215 -167 -207 -181 7 -11 29 -1 101 50 101 69 101
68 17 -38 -60 -76 -65 -86 -48 -97 12 -8 12 -8 134 138 55 64 103 117 107 117
4 0 10 -7 13 -16 4 -10 -30 -61 -99 -147 -58 -73 -103 -136 -102 -141 8 -26
32 -6 137 117 105 123 117 133 140 126 14 -4 37 -10 51 -13 22 -5 43 -34 115
-161 61 -106 94 -155 107 -155 9 0 17 2 17 5 0 3 -36 75 -80 159 l-81 154 43
24 c144 79 143 295 -1 367 -48 24 -97 31 -146 20z"/>
</g>
</svg>
