<svg class="animated" id="freepik_stories-404-error-with-people-holding-the-numbers" xmlns="http://www.w3.org/2000/svg" viewBox="0 0 500 500" version="1.1" xmlns:xlink="http://www.w3.org/1999/xlink" xmlns:svgjs="http://svgjs.com/svgjs"><style>svg#freepik_stories-404-error-with-people-holding-the-numbers:not(.animated) .animable {opacity: 0;}svg#freepik_stories-404-error-with-people-holding-the-numbers.animated #freepik--trafic-cone-2--inject-1 {animation: 6s Infinite  linear shake;animation-delay: 0s;}svg#freepik_stories-404-error-with-people-holding-the-numbers.animated #freepik--trafic-cone-1--inject-1 {animation: 6s Infinite  linear shake;animation-delay: 0s;}svg#freepik_stories-404-error-with-people-holding-the-numbers.animated #freepik--character-3--inject-1 {animation: 6s Infinite  linear wind;animation-delay: 0s;}svg#freepik_stories-404-error-with-people-holding-the-numbers.animated #freepik--character-2--inject-1 {animation: 6s Infinite  linear wind;animation-delay: 0s;}svg#freepik_stories-404-error-with-people-holding-the-numbers.animated #freepik--character-1--inject-1 {animation: 6s Infinite  linear wind;animation-delay: 0s;}svg#freepik_stories-404-error-with-people-holding-the-numbers.animated #freepik--Text--inject-1 {animation: 6s Infinite  linear heartbeat;animation-delay: 0s;}            @keyframes shake {                10%, 90% {                    transform: translate3d(-1px, 0, 0);                  }                  20%, 80% {                    transform: translate3d(2px, 0, 0);                  }                  30%, 50%, 70% {                    transform: translate3d(-4px, 0, 0);                  }                  40%, 60% {                    transform: translate3d(4px, 0, 0);                  }            }                    @keyframes wind {                0% {                    transform: rotate( 0deg );                }                25% {                    transform: rotate( 1deg );                }                75% {                    transform: rotate( -1deg );                }            }                    @keyframes heartbeat {                0% {                    transform: scale(1);                }                10% {                    transform: scale(1.1);                }                30% {                    transform: scale(1);                }                40% {                    transform: scale(1);                }                50% {                    transform: scale(1.1);                }                60% {                    transform: scale(1);                }                100% {                    transform: scale(1);                }            }        </style><g id="freepik--Shadow--inject-1" class="animable" style="transform-origin: 250px 416.24px;"><ellipse id="freepik--path--inject-1" cx="250" cy="416.24" rx="193.89" ry="11.32" style="fill: rgb(245, 245, 245); transform-origin: 250px 416.24px;" class="animable"></ellipse></g><g id="freepik--trafic-cone-2--inject-1" class="animable" style="transform-origin: 403.405px 380.235px;"><polygon points="419.25 408.95 406.09 343.39 401.04 343.39 387.88 408.95 378.2 414.87 378.2 416.63 428.61 416.63 428.61 414.87 419.25 408.95" style="fill: rgb(64, 123, 255); transform-origin: 403.405px 380.01px;" id="elsywbt5sh4la" class="animable"></polygon><g id="eluq98u951bu"><rect x="378.2" y="414.87" width="50.41" height="2.21" style="fill: rgb(255, 255, 255); isolation: isolate; opacity: 0.2; transform-origin: 403.405px 415.975px;" class="animable"></rect></g><g id="eld0mg98u47s"><polygon points="406.09 343.39 401.04 343.39 387.72 408.76 419.09 408.76 406.09 343.39" style="fill: rgb(255, 255, 255); isolation: isolate; opacity: 0.2; transform-origin: 403.405px 376.075px;" class="animable"></polygon></g><g id="elpnmqqiko8l"><polygon points="414.87 387.55 411.88 372.5 395.11 372.5 392.04 387.55 414.87 387.55" style="fill: rgb(255, 255, 255); isolation: isolate; opacity: 0.6; transform-origin: 403.455px 380.025px;" class="animable"></polygon></g></g><g id="freepik--trafic-cone-1--inject-1" class="animable" style="transform-origin: 98.875px 380.235px;"><polygon points="114.71 408.95 101.55 343.39 96.5 343.39 83.34 408.95 73.67 414.87 73.67 416.63 124.07 416.63 124.07 414.87 114.71 408.95" style="fill: rgb(64, 123, 255); transform-origin: 98.87px 380.01px;" id="el4xe69bw8tku" class="animable"></polygon><g id="el1b3jkf13ewfk"><rect x="73.67" y="414.87" width="50.41" height="2.21" style="fill: rgb(255, 255, 255); isolation: isolate; opacity: 0.2; transform-origin: 98.875px 415.975px;" class="animable"></rect></g><g id="el8keh7ufpu38"><polygon points="101.55 343.39 96.5 343.39 83.18 408.76 114.56 408.76 101.55 343.39" style="fill: rgb(255, 255, 255); isolation: isolate; opacity: 0.2; transform-origin: 98.87px 376.075px;" class="animable"></polygon></g><g id="el2hnegzzr2k3"><polygon points="110.33 387.55 107.34 372.5 90.57 372.5 87.51 387.55 110.33 387.55" style="fill: rgb(255, 255, 255); isolation: isolate; opacity: 0.6; transform-origin: 98.92px 380.025px;" class="animable"></polygon></g></g><g id="freepik--character-3--inject-1" class="animable" style="transform-origin: 333.62px 296.15px;"><path d="M362.17,409.06l8.41.14a.6.6,0,0,1,.58.48l1.27,6.18a1,1,0,0,1-.81,1.2.82.82,0,0,1-.22,0c-2.72-.09-4.7-.28-8.12-.34-2.1,0-8.45.09-11.35,0s-3.24-2.92-2.05-3.16c5.35-1.08,9.39-2.63,11.12-4.13A1.68,1.68,0,0,1,362.17,409.06Z" style="fill: rgb(38, 50, 56); transform-origin: 360.845px 413.062px;" id="el8i5sjclffw3" class="animable"></path><path d="M291.3,409.06l8.41.14a.6.6,0,0,1,.58.48l1.26,6.18a1,1,0,0,1-.8,1.2.9.9,0,0,1-.23,0c-2.72-.09-4.69-.28-8.11-.34-2.1,0-8.45.09-11.36,0s-3.23-2.92-2-3.16c5.35-1.08,9.39-2.63,11.12-4.13A1.68,1.68,0,0,1,291.3,409.06Z" style="fill: rgb(38, 50, 56); transform-origin: 289.973px 413.063px;" id="el4ed7bty9esq" class="animable"></path><path d="M372.46,409.49H361s-14.58-48.06-15.83-60.32-1.71-43-1.71-43v0l0,.06c-.49.66-4.82,6.74-9.8,13.81-6.51,9.25-14.15,20.19-15.76,22.87-4.72,7.9-16.28,66.54-16.28,66.54H290.13S293,357,298.89,339.7s31.3-55.08,32.4-57.11c1.41-2.59,4.87-10.81,4.87-10.81l34.31,4.77s.56,5.81.52,10.89c-.16,19.06-3.76,44.82-4.34,51.75C365.57,352.36,372.46,409.49,372.46,409.49Z" style="fill: rgb(64, 123, 255); transform-origin: 331.295px 340.635px;" id="eln7yr9bxx63" class="animable"></path><path d="M344.26,216.4s-10.27,18.31-8.09,55.38l34.3,4.77c1-5.23,1.23-31.38,9.77-55.49A91.23,91.23,0,0,0,369,218a126.33,126.33,0,0,0-14.58-2A65.28,65.28,0,0,0,344.26,216.4Z" style="fill: rgb(38, 50, 56); transform-origin: 358.053px 246.251px;" id="elbtdhd9aiciv" class="animable"></path><g id="el302t5qf11rq"><path d="M336.16,271.78l34.31,4.77c.61-3.27.94-14.75,3.19-28.8.6-3.75,1.34-7.69,2.27-11.69a139.58,139.58,0,0,1,4.31-15A89.41,89.41,0,0,0,369,218a126.9,126.9,0,0,0-14.59-2,66.76,66.76,0,0,0-10.11.41S334,234.71,336.16,271.78Z" style="fill: rgb(255, 255, 255); opacity: 0.2; transform-origin: 358.051px 246.254px;" class="animable"></path></g><path d="M365.3,199.81c-.7,4.78-1.21,13.49,2.25,16.49-4.44,2.15-7.65,3.6-11.32,7.24-1.51-2.84-3.38-6.53-3.38-6.53,5.21-1.51,4.89-5.42,3.79-9.06Z" style="fill: rgb(228, 137, 123); transform-origin: 360.2px 211.675px;" id="elnb20un17yc" class="animable"></path><g id="elcpwpx6ivrwc"><path d="M361.77,203.13,356.65,208a16.07,16.07,0,0,1,.58,2.59c2-.39,4.66-2.74,4.77-4.86A7,7,0,0,0,361.77,203.13Z" style="opacity: 0.2; transform-origin: 359.342px 206.86px;" class="animable"></path></g><g id="el0ampxrti7gia"><path d="M372.46,409.49H361s-14.58-48.06-15.83-60.32-1.71-43-1.71-43v0l0,.06c-.49.66-4.82,6.74-9.8,13.81-6.51,9.25-14.15,20.19-15.76,22.87-4.72,7.9-16.28,66.54-16.28,66.54H290.13S293,357,298.89,339.7s31.3-55.08,32.4-57.11c1.41-2.59,4.87-10.81,4.87-10.81l34.31,4.77s.56,5.81.52,10.89c-.16,19.06-3.76,44.82-4.34,51.75C365.57,352.36,372.46,409.49,372.46,409.49Z" style="fill: rgb(255, 255, 255); opacity: 0.5; transform-origin: 331.295px 340.635px;" class="animable"></path></g><polygon points="373.24 218.98 370.39 215.42 361.16 217.2 356.47 222.57 355.88 216.37 354.15 214.29 350.36 215.93 350.36 219.81 353.06 218.94 355.39 224.35 362.77 221.32 364.41 223.41 373.24 218.98" style="fill: rgb(38, 50, 56); transform-origin: 361.8px 219.32px;" id="eljfd7nd0af1r" class="animable"></polygon><g id="el9qy9r90n6ip"><polygon points="373.24 218.98 370.39 215.42 361.16 217.2 356.47 222.57 355.88 216.37 354.15 214.29 350.36 215.93 350.36 219.81 353.06 218.94 355.39 224.35 362.77 221.32 364.41 223.41 373.24 218.98" style="fill: rgb(255, 255, 255); opacity: 0.3; transform-origin: 361.8px 219.32px;" class="animable"></polygon></g><path d="M348.45,225.58A227.14,227.14,0,0,1,320,223.64c-8.23-2.2-15.61-13.47-19.66-20.49l3.84-2.68c5,5.18,9.94,11.07,16.26,14.46a4.2,4.2,0,0,0,1.46.4c8.78.38,17.92.4,26.76.8l-.24,9.45Z" style="fill: rgb(220, 137, 124); transform-origin: 324.5px 213.025px;" id="elsw793dc2pzk" class="animable"></path><path d="M352.24,229.6c-5,3.68-24.45-1.8-24.45-1.8l2.42-11.92a64.4,64.4,0,0,1,16.52.3C355,217.64,357.77,225.51,352.24,229.6Z" style="fill: rgb(38, 50, 56); transform-origin: 341.453px 223.179px;" id="ell1h2g08cal" class="animable"></path><g id="elbvkdzufho74"><path d="M352.24,229.6c-5,3.68-24.45-1.8-24.45-1.8l2.42-11.92a64.4,64.4,0,0,1,16.52.3C355,217.64,357.77,225.51,352.24,229.6Z" style="fill: rgb(255, 255, 255); opacity: 0.2; transform-origin: 341.453px 223.179px;" class="animable"></path></g><g id="el7ywvs8d06z8"><path d="M351.59,230c.41-2.78-1.39-5.21-6.8-6.54a50.61,50.61,0,0,0-16-.73l-1,5.07S345.84,233,351.59,230Z" style="opacity: 0.1; transform-origin: 339.718px 226.669px;" class="animable"></path></g><path d="M307,204.32l-3.77-8.44-6.75,4.43s1.8,6.26,7.16,6.75Z" style="fill: rgb(228, 137, 123); transform-origin: 301.74px 201.47px;" id="elmh5urkkg6lh" class="animable"></path><polygon points="298.06 191.84 293.81 196.34 296.49 200.31 303.24 195.88 298.06 191.84" style="fill: rgb(228, 137, 123); transform-origin: 298.525px 196.075px;" id="elanpx2uriw4d" class="animable"></polygon><g id="el3b4khf9yy7x"><polygon points="355.39 224.35 354.5 217.87 350.36 219.81 353.06 218.94 355.39 224.35" style="opacity: 0.1; transform-origin: 352.875px 221.11px;" class="animable"></polygon></g><g id="elu3lcfcu5npe"><polygon points="355.39 224.35 362.23 219.32 364.41 223.41 362.77 221.32 355.39 224.35" style="opacity: 0.1; transform-origin: 359.9px 221.835px;" class="animable"></polygon></g><g id="els9jq6p9pzn"><path d="M373.66,247.75c.6-3.75,1.34-7.69,2.27-11.69a7.19,7.19,0,0,0-4.42-2.58S370.57,242.56,373.66,247.75Z" style="opacity: 0.1; transform-origin: 373.653px 240.615px;" class="animable"></path></g><g id="el8b9a29w44mq"><path d="M343.46,306.19v0l0,.06c-.49.66-4.82,6.74-9.8,13.81a19.57,19.57,0,0,1,9.65-19.45Z" style="opacity: 0.2; transform-origin: 338.481px 310.335px;" class="animable"></path></g><path d="M366.32,226.45l-10.58,2.72L352,214.63l-25.25,6.52L323,225.67l12.76-48.9-27.52,7.1-7,5.38-18.69,67.16,5.26,20.39,41.28-10.65,4.21,16.31,26-6.72,7-5.38-3.35-13,2.7-.69,7-5.38Zm-43.71,11.27-2.92.76,1.57-6Z" style="fill: rgb(64, 123, 255); transform-origin: 327.6px 229.615px;" id="elqwfemzjqes" class="animable"></path><g id="elaufno0j0jtq"><polygon points="326.61 179.14 308.27 183.87 308.27 183.87 326.61 179.14" style="opacity: 0.2; transform-origin: 317.44px 181.505px;" class="animable"></polygon></g><g id="el3qcjyofb24d"><polygon points="330.5 235.69 326.74 221.15 323.03 225.67 328.73 203.83 321.11 233.03 321.26 232.47 322.61 237.72 319.69 238.48 319.69 238.48 330.5 235.69" style="opacity: 0.2; transform-origin: 325.095px 221.155px;" class="animable"></polygon></g><g id="elmro8xkrqyl"><polygon points="340.33 277.08 336.12 260.77 294.84 271.42 289.57 251.03 308.27 183.87 301.25 189.25 282.56 256.41 287.82 276.8 329.1 266.15 333.31 282.46 359.35 275.74 366.37 270.36 366.37 270.36 340.33 277.08" style="opacity: 0.2; transform-origin: 324.465px 233.165px;" class="animable"></polygon></g><g id="elqimv81rqr4a"><polygon points="372.74 251.32 362.16 254.05 364.97 264.93 363.02 257.39 365.72 256.7 372.74 251.32 369.53 238.88 372.74 251.32" style="opacity: 0.2; transform-origin: 367.45px 251.905px;" class="animable"></polygon></g><path d="M384.21,226.77c.9,4.18,1.58,8.28,2.1,12.5.54,5.39,1.34,11.32.11,17-3.4,10.39-18.39,4.33-25,1.07L363,253c4.76.81,9.51,1.78,14.08,1.31a3.38,3.38,0,0,0,1.51-.46c.08-.06,0-.08-.16,0a1.33,1.33,0,0,0-.34.46c0-.18.06-.6.08-1,0-8.19-1.9-16.59-3.25-24.68l9.26-1.9Z" style="fill: rgb(220, 137, 124); transform-origin: 374.244px 244.406px;" id="el61g8hx0rhc6" class="animable"></path><path d="M380.24,221.06c9.21,3.87,8.62,25.84,8.62,25.84l-12.54.88a113.45,113.45,0,0,1-5.82-16.91C368.62,222.7,374.11,218.5,380.24,221.06Z" style="fill: rgb(38, 50, 56); transform-origin: 379.496px 234.046px;" id="eltw2bkdwqno" class="animable"></path><g id="el3lm6g0a7wrw"><path d="M380.24,221.06c9.21,3.87,8.62,25.84,8.62,25.84l-12.54.88a113.45,113.45,0,0,1-5.82-16.91C368.62,222.7,374.11,218.5,380.24,221.06Z" style="fill: rgb(255, 255, 255); opacity: 0.2; transform-origin: 379.496px 234.046px;" class="animable"></path></g><path d="M365.6,253.6l-7.06-6-4.16,6.93s4.34,4.86,9.38,3Z" style="fill: rgb(228, 137, 123); transform-origin: 359.99px 252.777px;" id="eli5jer7znf1" class="animable"></path><polygon points="352.12 246.24 350.25 252.14 354.38 254.56 358.54 247.63 352.12 246.24" style="fill: rgb(228, 137, 123); transform-origin: 354.395px 250.4px;" id="elrj9k8d7nef" class="animable"></polygon><path d="M350.61,184.52c-3.08,1.75-4.05,11,.22,12.55S356.45,181.22,350.61,184.52Z" style="fill: rgb(38, 50, 56); transform-origin: 351.24px 190.635px;" id="elp3n5vak5zts" class="animable"></path><path d="M366.18,193c-.81,6.47-.95,10.29-4.44,13.53a8.47,8.47,0,0,1-14.2-4.84c-1-5.87.46-15.46,7-17.86A8.57,8.57,0,0,1,366.18,193Z" style="fill: rgb(228, 137, 123); transform-origin: 356.759px 196.042px;" id="elslz6aj9qrsg" class="animable"></path><path d="M359.47,185.76l-.09-5.59a7.32,7.32,0,0,0,4.54.2c6.44-2.07,11.81,1.73,9.05,5.66,3.21,1.09,1.84,5.47,0,8.35-2.58,4-5.5,6-7.76,4.49-2-.78-2.81-7.31-2.38-9.79C363.47,185.34,359.47,185.76,359.47,185.76Z" style="fill: rgb(38, 50, 56); transform-origin: 367.139px 189.58px;" id="el7brxffppixk" class="animable"></path><path d="M368.24,199.48a7,7,0,0,1-3.81,2.76c-2,.53-2.59-1.29-1.73-3.17.76-1.7,2.72-4,4.55-3.7S369.39,197.81,368.24,199.48Z" style="fill: rgb(228, 137, 123); transform-origin: 365.616px 198.838px;" id="elasqgkcnxjs9" class="animable"></path><path d="M356.22,194.53c0,.53-.34.95-.68.94s-.6-.45-.57-1,.34-.95.69-.94S356.26,194,356.22,194.53Z" style="fill: rgb(38, 50, 56); transform-origin: 355.596px 194.5px;" id="elghbbh4dzqq4" class="animable"></path><path d="M350.25,194.36c0,.53-.34.95-.68.94s-.6-.44-.57-1,.34-1,.69-.94S350.28,193.84,350.25,194.36Z" style="fill: rgb(38, 50, 56); transform-origin: 349.625px 194.327px;" id="el8qxs187264o" class="animable"></path><path d="M352.13,194.68a19.78,19.78,0,0,1-2.8,4.44,3,3,0,0,0,2.49.55Z" style="fill: rgb(222, 87, 83); transform-origin: 350.73px 197.212px;" id="el88gvug9autn" class="animable"></path><path d="M358.19,192.66a.47.47,0,0,0,.15-.06.32.32,0,0,0,.08-.43,3,3,0,0,0-2.45-1.35.3.3,0,0,0-.3.32.32.32,0,0,0,.32.3,2.37,2.37,0,0,1,1.92,1.08A.29.29,0,0,0,358.19,192.66Z" style="fill: rgb(38, 50, 56); transform-origin: 357.07px 191.741px;" id="elzblqc752ifb" class="animable"></path><path d="M347.81,192.24a.3.3,0,0,0,.25-.16,2.6,2.6,0,0,1,1.84-1.36.31.31,0,0,0,.28-.34.31.31,0,0,0-.34-.28h0a3.2,3.2,0,0,0-2.33,1.67.31.31,0,0,0,.13.42A.25.25,0,0,0,347.81,192.24Z" style="fill: rgb(38, 50, 56); transform-origin: 348.828px 191.17px;" id="elck3gczteswt" class="animable"></path><path d="M364.37,181.05s-5.81-8.16-14.05-5.15a6.61,6.61,0,0,1,2.45.65s-7.5.41-9.07,5.94l1.3-1s-1.27,4.58,1.34,7.11l.22-1.49s3.57,3.34,7.94,1.62l-1.68-.57s7.77-1.35,9.42-3.61A18.63,18.63,0,0,0,364.37,181.05Z" style="fill: rgb(38, 50, 56); transform-origin: 354.035px 182.228px;" id="elesb2uj80jfs" class="animable"></path><path d="M350.79,201.59a42.1,42.1,0,0,1,7.77-2c-.35,1.87-1.35,3.53-4.33,4.06A2.74,2.74,0,0,1,350.79,201.59Z" style="fill: rgb(38, 50, 56); transform-origin: 354.675px 201.674px;" id="elyax02d01bvp" class="animable"></path><path d="M355.35,202.07a5.55,5.55,0,0,0-3.07,1.45,3.15,3.15,0,0,0,2,.18,5.45,5.45,0,0,0,3.07-1.45A3.15,3.15,0,0,0,355.35,202.07Z" style="fill: rgb(160, 39, 36); transform-origin: 354.815px 202.885px;" id="elv2xqmzd8sz" class="animable"></path><path d="M351,201.49a1.24,1.24,0,0,0,1.07.7,31.72,31.72,0,0,0,5.05-1.4,1.68,1.68,0,0,0,1.15-1.11A49.82,49.82,0,0,0,351,201.49Z" style="fill: rgb(255, 255, 255); transform-origin: 354.635px 200.935px;" id="elwyv3mjn3u2o" class="animable"></path></g><g id="freepik--character-2--inject-1" class="animable animator-active" style="transform-origin: 229.234px 310.112px;"><path d="M248.67,417.08c5.07,0,5.75-.08,8.6-.18,2.44-.08,3,.22,5,.18,1.64,0,1.58-1.61,1.07-3.41-.25-.91-.64-2.83-1-4.29l-7.44-.54c-1.05,2-3.41,4.84-6.27,5.23S246.65,417.08,248.67,417.08Z" style="fill: rgb(64, 123, 255); transform-origin: 255.231px 412.962px;" id="elzro7s97e02o" class="animable"></path><path d="M253.23,400a51.18,51.18,0,0,0,7.48-9.11c1.39-2,1.65-1.48,3.13-3.42a2.33,2.33,0,0,0-1.33-3.51,21.65,21.65,0,0,1-3.8-1.13l-5.07,3.73c.93,2.39-.29,9.12-2.9,11.89C248.87,400.44,251.75,401.36,253.23,400Z" style="fill: rgb(64, 123, 255); transform-origin: 257.171px 391.738px;" id="el8h1zxu2pjz" class="animable"></path><path d="M236.21,277s-14.59,41.7-16.48,57C217.89,348.89,254,387.71,254,387.71c.88.66,4.5-3.84,4.7-5-9-17.36-14.57-43.08-23.59-49.38,21.63-32.07,24.65-52.58,24.65-52.58Z" style="fill: rgb(38, 50, 56); transform-origin: 239.711px 332.388px;" id="elegrhcczcrw7" class="animable"></path><path d="M274.43,206.68c5.05,7.6,4.47,11.33,2.86,26.32s3.73,21.29,1.14,28.19-21.16,6.32-29.43-7.5,2.14-43.52,10-46.42A26.49,26.49,0,0,1,274.43,206.68Z" style="fill: rgb(38, 50, 56); transform-origin: 262.558px 235.659px;" id="elzikiuo57bif" class="animable"></path><g id="eli0wa4qcfpn"><path d="M246.46,291.67S245.27,307,245,317.43c2.86-5.09,5.18-9.73,7.06-13.88Z" style="opacity: 0.2; transform-origin: 248.53px 304.55px;" class="animable"></path></g><path d="M243.28,278.11s5.43,42,8.54,62.22c3.26,21.22,3.68,55.28,2.86,69.16,1.19.69,5.5.21,7.84-.52,0,0,14.09-45.53,3.74-66.55,6.7-49.11-3-61.14-3-61.14Z" style="fill: rgb(38, 50, 56); transform-origin: 256.668px 343.967px;" id="elaqxs1bq725t" class="animable"></path><path d="M246.86,248.85a58.3,58.3,0,0,1-15,12.53c-10.61,6.18-13-11.6-13.33-18.47a2.08,2.08,0,0,1,4.06-.67c1,3,2.06,6.06,3.26,8.83.77,1.64,1.6,3.63,2.8,4.53,0-.27-1.08-.34-1.27-.21l-.16,0,1.39-1a89.66,89.66,0,0,0,11.93-10.94c3.68-3.81,9.49,1.21,6.29,5.4Z" style="fill: rgb(233, 179, 118); transform-origin: 233.144px 251.73px;" id="elnraea11ofl" class="animable"></path><path d="M273.78,248.64c-7.58,16.38-9.85,24.92-10.51,32.64L236.21,277c.62-8.94,1.08-14.29,1.73-19.7a82.1,82.1,0,0,1,1.79-11c.73-3.85,3.77-7.83,7.51-9.14a7.5,7.5,0,0,1,2.69-.46c1.35,0,2.76.08,4.12.17a89.52,89.52,0,0,1,12.29,1.94c1.16.25,2.28.52,3.34.8.22.06.45.14.66.22A6.4,6.4,0,0,1,273.78,248.64Z" style="fill: rgb(64, 123, 255); transform-origin: 255.326px 258.99px;" id="elha3cgdcb6hf" class="animable"></path><path d="M267.67,224.81c-1.7,3.79-4.16,10.83-2,13.87,0,0-3.65-1.15-12.38,2.5-1.78-3.66.09-4.44.09-4.44,4.66-.35,5.3-3.6,5.25-6.75Z" style="fill: rgb(235, 179, 118); transform-origin: 260.096px 232.995px;" id="elmnu7tpya4ij" class="animable"></path><g id="elkdvkdy0ns8"><path d="M264,226.92,258.63,230a13.58,13.58,0,0,1-.13,2.22c1.74,0,4.48-1.44,5.07-3.15A5.86,5.86,0,0,0,264,226.92Z" style="opacity: 0.2; transform-origin: 261.25px 229.57px;" class="animable"></path></g><g id="elhlpn6bdnzkw"><path d="M273.78,248.64q-1.27,2.73-2.34,5.19c-2.06,4.71-3.62,8.7-4.8,12.19a62.83,62.83,0,0,0-3.37,15.26L236.21,277c.62-8.94,1.08-14.29,1.73-19.7a82.1,82.1,0,0,1,1.79-11c.73-3.85,3.77-7.83,7.51-9.14a7.5,7.5,0,0,1,2.69-.46c1.35,0,2.76.08,4.12.17a89.52,89.52,0,0,1,12.29,1.94c1.16.25,2.28.52,3.34.8.22.06.45.14.66.22A6.4,6.4,0,0,1,273.78,248.64Z" style="fill: rgb(255, 255, 255); opacity: 0.6; transform-origin: 255.326px 258.99px;" class="animable"></path></g><path d="M272.3,217.41c-2.21,6.2-3,8.86-7.14,11.34-6.21,3.74-13.36.11-13.05-6.51.28-6,3.85-15.09,10.77-16.16A8.43,8.43,0,0,1,272.3,217.41Z" style="fill: rgb(235, 179, 118); transform-origin: 262.485px 218.095px;" id="eleivd0504ubw" class="animable"></path><path d="M265,203.14c-4.81,0-11.85,4.43-5.74,5.74-.06,2,3.54,2.13,6.19,1.2-.43,1.43,1.88,4.38,5.2,3.64-1.94.95-2.28,5.87,0,6.26s7,1.86,6.59-6.26S270.15,203.14,265,203.14Z" style="fill: rgb(38, 50, 56); transform-origin: 267.074px 211.738px;" id="elmly2bb3t7p" class="animable"></path><path d="M264,217.19c-.17.52-.58.89-.92.81s-.48-.58-.32-1.11.57-.89.91-.81S264.14,216.66,264,217.19Z" style="fill: rgb(38, 50, 56); transform-origin: 263.375px 217.04px;" id="el80w42whaunj" class="animable"></path><path d="M257.37,215.42c-.17.53-.57.89-.92.81s-.48-.57-.32-1.1.57-.89.91-.81S257.53,214.89,257.37,215.42Z" style="fill: rgb(38, 50, 56); transform-origin: 256.748px 215.275px;" id="elbh3ssys58jj" class="animable"></path><path d="M257.19,214.38l-1.15-.66S256.38,214.86,257.19,214.38Z" style="fill: rgb(38, 50, 56); transform-origin: 256.615px 214.109px;" id="el12294gmfivm" class="animable"></path><path d="M259,217.06a16.43,16.43,0,0,1-2.9,2.93,2.2,2.2,0,0,0,1.75.79Z" style="fill: rgb(213, 135, 69); transform-origin: 257.55px 218.92px;" id="el6ozwd8512d9" class="animable"></path><path d="M260.3,223.44a5.92,5.92,0,0,1-.9-.13.15.15,0,0,1-.11-.2.17.17,0,0,1,.2-.11,4.53,4.53,0,0,0,3.88-.85.16.16,0,0,1,.23,0,.15.15,0,0,1,0,.22A4.8,4.8,0,0,1,260.3,223.44Z" style="fill: rgb(38, 50, 56); transform-origin: 261.464px 222.774px;" id="eln4r25zp5ijm" class="animable"></path><path d="M272.89,223.08a5.28,5.28,0,0,1-3.7,1.6c-1.79,0-2.07-1.85-1.07-3.38s2.93-3.05,4.48-2.3S274.13,221.81,272.89,223.08Z" style="fill: rgb(235, 179, 118); transform-origin: 270.67px 221.741px;" id="eld83op6ktpe" class="animable"></path><path d="M266,214.11a.32.32,0,0,1-.21-.13,2.34,2.34,0,0,0-1.94-1.12.31.31,0,0,1-.31-.31.36.36,0,0,1,.33-.33,2.93,2.93,0,0,1,2.47,1.39.32.32,0,0,1-.1.44A.36.36,0,0,1,266,214.11Z" style="fill: rgb(38, 50, 56); transform-origin: 264.964px 213.166px;" id="elbg2l2jn89or" class="animable"></path><path d="M255.71,211.3a.27.27,0,0,1-.21-.09.31.31,0,0,1,0-.45,3.33,3.33,0,0,1,2.83-1,.29.29,0,0,1,.22.37.34.34,0,0,1-.39.25,2.72,2.72,0,0,0-2.24.8A.36.36,0,0,1,255.71,211.3Z" style="fill: rgb(38, 50, 56); transform-origin: 256.983px 210.516px;" id="eleczgz2y2fzf" class="animable"></path><path d="M263.79,216.15l-1.14-.66S263,216.63,263.79,216.15Z" style="fill: rgb(38, 50, 56); transform-origin: 263.22px 215.879px;" id="elbzgh5fbb0p" class="animable"></path><path d="M251.5,237.36c-5.28-2-9.47.47-15.88,7.71.45,3.71,6.69,9.3,6.69,9.3S253,244.22,251.5,237.36Z" style="fill: rgb(64, 123, 255); transform-origin: 243.632px 245.531px;" id="eltwks1lhoe2" class="animable"></path><path d="M270.34,239.8a68.59,68.59,0,0,1-6.71,3h0c-.59.21-1.19.43-1.8.63-3.48,1.17-7.12,1.9-9.72,1.13a6.16,6.16,0,0,1-4.68-4.6,8.55,8.55,0,0,1-.18-2.87,7.5,7.5,0,0,1,2.69-.46l.91,0c.4,0,.78,0,1.18,0l2,.11a89.52,89.52,0,0,1,12.29,1.94l.26.06.91.2c.74.17,1.47.35,2.17.54C269.9,239.64,270.13,239.72,270.34,239.8Z" style="fill: rgb(235, 179, 118); transform-origin: 258.771px 240.753px;" id="el2xy3zebxi12" class="animable"></path><path d="M267.51,239a22.64,22.64,0,0,0-3.88,3.8h0c-.59.21-1.19.43-1.8.63a18.7,18.7,0,0,1,4.78-4.63Z" style="fill: rgb(38, 50, 56); transform-origin: 264.67px 241.115px;" id="el2vtzcaqqe16" class="animable"></path><path d="M252,236.73a25,25,0,0,0-4.2,4.43,6.38,6.38,0,0,1-.4-1.16,18.73,18.73,0,0,1,3.42-3.3C251.24,236.7,251.62,236.72,252,236.73Z" style="fill: rgb(38, 50, 56); transform-origin: 249.7px 238.93px;" id="el0bodgxkwd94q" class="animable"></path><g id="el81oyw2hsfgq"><path d="M267.51,239a22.64,22.64,0,0,0-3.88,3.8h0c-.59.21-1.19.43-1.8.63a18.7,18.7,0,0,1,4.78-4.63Z" style="fill: rgb(255, 255, 255); opacity: 0.2; transform-origin: 264.67px 241.115px;" class="animable"></path></g><g id="el6vbd488pqla"><path d="M252,236.73a25,25,0,0,0-4.2,4.43,6.38,6.38,0,0,1-.4-1.16,18.73,18.73,0,0,1,3.42-3.3C251.24,236.7,251.62,236.72,252,236.73Z" style="fill: rgb(255, 255, 255); opacity: 0.2; transform-origin: 249.7px 238.93px;" class="animable"></path></g><g id="elinm2mjs2c4q"><path d="M271.44,253.83c-2.06,4.71-3.62,8.7-4.8,12.19-9.87-6.11-1.72-16.4-1.72-16.4A15.79,15.79,0,0,1,271.44,253.83Z" style="opacity: 0.1; transform-origin: 266.599px 257.82px;" class="animable"></path></g><path d="M222.08,209.57c-23.16-1.33-40.76,16.51-42.61,49a85.13,85.13,0,0,0-.07,8.87c-1,31.11,14.26,49.92,36.85,51.21,23.16,1.32,40.76-16.52,42.61-49a85.15,85.15,0,0,0,.07-8.87C259.92,229.67,244.67,210.86,222.08,209.57Zm7.08,51.86c-1.07,18.92-5.67,24.56-11.43,24.24-4.67-.27-8.13-4.36-8.69-16,0-.92.07-1.87.12-2.86,1.08-18.92,5.67-24.56,11.43-24.23,4.68.26,8.14,4.35,8.7,16C229.26,259.5,229.22,260.44,229.16,261.43Z" style="fill: rgb(64, 123, 255); transform-origin: 219.165px 264.109px;" id="elmgya3p028oh" class="animable"></path><g id="el33lfqdn9ppr"><path d="M258.84,253.36c0-.47,0-.94-.09-1.41C258.79,252.42,258.81,252.89,258.84,253.36Z" style="opacity: 0.2; transform-origin: 258.795px 252.655px;" class="animable"></path></g><g id="elhzs3gyz91yb"><path d="M179.36,266.37c0-.44,0-.88,0-1.32C179.33,265.49,179.35,265.93,179.36,266.37Z" style="opacity: 0.2; transform-origin: 179.352px 265.71px;" class="animable"></path></g><g id="elnrpn6407lgc"><path d="M179.47,258.75c1.85-32.52,19.45-50.36,42.61-49,19.5,1.11,33.54,15.27,36.38,39.14-2.8-24-16.84-38.18-36.38-39.29-23.16-1.33-40.76,16.51-42.61,49-.06,1-.1,2-.12,3C179.37,260.68,179.41,259.72,179.47,258.75Z" style="opacity: 0.2; transform-origin: 218.905px 235.565px;" class="animable"></path></g><g id="elblu89s3am2t"><path d="M258.94,255.59c0-.23,0-.45,0-.68C258.93,255.13,258.93,255.36,258.94,255.59Z" style="opacity: 0.2; transform-origin: 258.936px 255.25px;" class="animable"></path></g><g id="el5quqj1t4d23"><path d="M258.68,251.11c-.06-.69-.12-1.38-.2-2.05C258.56,249.73,258.62,250.42,258.68,251.11Z" style="opacity: 0.2; transform-origin: 258.58px 250.085px;" class="animable"></path></g><g id="ellwr044kyig"><path d="M179.32,264.13c0-.71,0-1.42,0-2.14C179.33,262.71,179.32,263.42,179.32,264.13Z" style="opacity: 0.2; transform-origin: 179.322px 263.06px;" class="animable"></path></g><g id="elk53dxr5t1gi"><path d="M258.84,263.27c-1.86,32.52-19.46,50.35-42.62,49-21-1.19-35.63-17.49-36.83-44.72-.95,31,14.29,49.81,36.86,51.1,23.16,1.32,40.76-16.52,42.61-49a83.42,83.42,0,0,0,.07-8.78Q258.9,262.06,258.84,263.27Z" style="opacity: 0.2; transform-origin: 219.181px 289.794px;" class="animable"></path></g><g id="elq2cgjjhtp"><path d="M209.14,260.44c-1.08,18.92,2.84,25.05,8.6,25.37s10.35-5.31,11.43-24.23-2.85-25-8.6-25.38S210.21,241.52,209.14,260.44Zm20.15-1.87c0,.93-.07,1.87-.13,2.86-1.07,18.92-5.67,24.56-11.43,24.24-4.67-.27-8.13-4.36-8.69-16,0-.92.07-1.87.12-2.86,1.08-18.92,5.67-24.56,11.43-24.23C225.27,242.84,228.73,246.93,229.29,258.57Z" style="opacity: 0.2; transform-origin: 219.155px 261.003px;" class="animable"></path></g><path d="M214.41,240l.28,1.76a2.07,2.07,0,0,0,1.13,1.54l2.81,1.4a3.84,3.84,0,0,0,3.55-.06l.69-.36c-.27-3-2.73-6-2.73-6l-.61-.94a1.74,1.74,0,0,0-2.4-.56L215.27,238A2,2,0,0,0,214.41,240Z" style="fill: rgb(235, 179, 118); transform-origin: 218.626px 240.811px;" id="el36spttzl71j" class="animable"></path><path d="M236.12,258.38l2-.44a2.38,2.38,0,0,1,2.11.55l2.67,2.41a4.41,4.41,0,0,1,1.44,3.8l-.1.89c-3.26,1-7.49-.4-7.49-.4l-1.25-.26a2,2,0,0,1-1.61-2.31l.47-2.48A2.3,2.3,0,0,1,236.12,258.38Z" style="fill: rgb(235, 179, 118); transform-origin: 239.115px 261.916px;" id="eldpxnykjaldk" class="animable"></path><path d="M274.19,253.52a55.69,55.69,0,0,1-10,21.31c-6.5,6.9-19.72-5.82-24.4-10.52a2.07,2.07,0,0,1,2.6-3.17c3.16,2,6.47,4.06,9.77,5.79,2.21,1.12,4.54,2.35,6.79,2.6.73,0,.26-.18-.2.21l-.54.58a44.85,44.85,0,0,0,2.48-4.29,82.8,82.8,0,0,0,5.42-14.56,4.15,4.15,0,0,1,8,2.05Z" style="fill: rgb(233, 179, 118); transform-origin: 256.716px 262.792px;" id="eli84ovkl7cg" class="animable"></path><path d="M271.77,240.54c4.61,3.27,4.83,8.15,2.34,17.5-3.34,1.67-11.44-.44-11.44-.44S265.22,243.08,271.77,240.54Z" style="fill: rgb(64, 123, 255); transform-origin: 269.18px 249.612px;" id="el6hj9bq77iag" class="animable"></path><g id="elagbb8yhusjh"><path d="M271.77,240.54c4.61,3.27,4.83,8.15,2.34,17.5-3.34,1.67-11.44-.44-11.44-.44S265.22,243.08,271.77,240.54Z" style="fill: rgb(255, 255, 255); opacity: 0.6; transform-origin: 269.18px 249.612px;" class="animable"></path></g></g><g id="freepik--character-1--inject-1" class="animable" style="transform-origin: 148.675px 291.737px;"><polygon points="184.31 402.1 190.52 399.85 187.1 384.88 180.89 387.13 184.31 402.1" style="fill: rgb(255, 195, 189); transform-origin: 185.705px 393.49px;" id="elu8b3y8lrdf8" class="animable"></polygon><polygon points="135.32 410.35 141.91 410.35 143.79 395.08 137.19 395.08 135.32 410.35" style="fill: rgb(255, 195, 189); transform-origin: 139.555px 402.715px;" id="eld6y16x7c4u7" class="animable"></polygon><path d="M142.78,409.59h-8a.57.57,0,0,0-.56.45l-1.36,5.86a1,1,0,0,0,1,1.17c2.59-.05,4.47-.2,7.73-.2,2,0,8.05.21,10.81.21s3.16-2.73,2-3c-5.07-1.11-8.88-2.65-10.49-4.11A1.61,1.61,0,0,0,142.78,409.59Z" style="fill: rgb(38, 50, 56); transform-origin: 143.928px 413.334px;" id="el9q8sbm6h5x6" class="animable"></path><path d="M190.75,398.58l-7.06,1.52a.58.58,0,0,0-.46.55l-.1,6a1,1,0,0,0,1.16.94c2.54-.59,6.19-1.52,9.39-2.21,3.74-.8,6.06-1.56,10.44-2.5,2.65-.57,2.84-3.4,1.68-3.4-5.28,0-8.48,1-13.39-.74A3.06,3.06,0,0,0,190.75,398.58Z" style="fill: rgb(38, 50, 56); transform-origin: 194.803px 403.067px;" id="elan6pkv2nhyh" class="animable"></path><g id="el6ukm9r57umw"><polygon points="187.1 384.88 188.86 392.6 182.65 394.85 180.89 387.14 187.1 384.88" style="opacity: 0.2; transform-origin: 184.875px 389.865px;" class="animable"></polygon></g><g id="eljjuwmy838sq"><polygon points="137.19 395.09 143.79 395.09 142.82 402.96 136.22 402.96 137.19 395.09" style="opacity: 0.2; transform-origin: 140.005px 399.025px;" class="animable"></polygon></g><path d="M190.68,390.32l-10.51,3.81S172,358,167.58,337.9a213.17,213.17,0,0,0-7.16-23.42c-4-11.26-8.75-23.38-12.6-32.85-4.06-10-7.08-17-7.08-17l22.74-4.6s17.35,49.92,21.25,69.66C188.78,350.18,190.68,390.32,190.68,390.32Z" style="fill: rgb(38, 50, 56); transform-origin: 165.71px 327.08px;" id="ell7wyh07ui" class="animable"></path><g id="elh8m18wa6jn9"><g style="opacity: 0.3; transform-origin: 165.71px 327.08px;" class="animable"><path d="M190.68,390.32l-10.51,3.81S172,358,167.58,337.9a213.17,213.17,0,0,0-7.16-23.42c-4-11.26-8.75-23.38-12.6-32.85-4.06-10-7.08-17-7.08-17l22.74-4.6s17.35,49.92,21.25,69.66C188.78,350.18,190.68,390.32,190.68,390.32Z" style="fill: rgb(255, 255, 255); transform-origin: 165.71px 327.08px;" id="elrsrjogr0ws" class="animable"></path></g></g><g id="el3lphq7syftr"><path d="M160.42,314.48c-4-11.26-8.75-23.38-12.6-32.85l1.76-5.44C156.09,282.21,160.15,303,160.42,314.48Z" style="opacity: 0.2; transform-origin: 154.12px 295.335px;" class="animable"></path></g><path d="M151.21,262.49s4.06,56.93,4.31,76.27c.27,21.18-9.64,62.67-9.64,62.67H133.81S138.63,364,137,343c-1.8-23.46-8.13-76-8.13-76Z" style="fill: rgb(38, 50, 56); transform-origin: 142.198px 331.96px;" id="el1fejwmkm8ze" class="animable"></path><g id="ele5ow4g2cz88"><g style="opacity: 0.3; transform-origin: 142.198px 331.96px;" class="animable"><path d="M151.21,262.49s4.06,56.93,4.31,76.27c.27,21.18-9.64,62.67-9.64,62.67H133.81S138.63,364,137,343c-1.8-23.46-8.13-76-8.13-76Z" style="fill: rgb(255, 255, 255); transform-origin: 142.198px 331.96px;" id="elv9e4k1bcun" class="animable"></path></g></g><polygon points="147.32 401.69 133.11 401.69 133.15 397.44 147.99 396.59 147.32 401.69" style="fill: rgb(38, 50, 56); transform-origin: 140.55px 399.14px;" id="elmvwnt8rry0h" class="animable"></polygon><polygon points="192.09 390.18 179.49 394.56 178.12 390.49 191.9 385.48 192.09 390.18" style="fill: rgb(38, 50, 56); transform-origin: 185.105px 390.02px;" id="elckeix4x6owj" class="animable"></polygon><path d="M143.23,410.5a.15.15,0,0,1-.12-.12.16.16,0,0,1,.07-.16c.24-.15,2.39-1.46,3.11-1.08a.47.47,0,0,1,.26.44.93.93,0,0,1-.33.82,2,2,0,0,1-1.27.34A7.67,7.67,0,0,1,143.23,410.5Zm.45-.22a3.11,3.11,0,0,0,2.34-.12.64.64,0,0,0,.22-.56c0-.13-.05-.17-.1-.19a.54.54,0,0,0-.2,0A6.44,6.44,0,0,0,143.68,410.28Z" style="fill: rgb(64, 123, 255); transform-origin: 144.832px 409.908px;" id="elxkoq6s7pn5" class="animable"></path><path d="M143.18,410.48a.13.13,0,0,1-.07-.14c0-.08.18-2,1-2.61a.86.86,0,0,1,.66-.2.5.5,0,0,1,.5.41c.13.73-1.21,2.18-1.89,2.55l-.08,0A.11.11,0,0,1,143.18,410.48Zm1.08-2.51a3.81,3.81,0,0,0-.8,2.07c.68-.52,1.54-1.61,1.46-2,0,0,0-.14-.23-.16h-.07A.56.56,0,0,0,144.26,408Z" style="fill: rgb(64, 123, 255); transform-origin: 144.193px 409.014px;" id="elodw0nnd32gl" class="animable"></path><path d="M203.29,179.55l5.28-5.68,3.16,8s-5,4.78-7.37,2.1Z" style="fill: rgb(255, 195, 189); transform-origin: 207.51px 179.328px;" id="elnp6wpv8b60a" class="animable"></path><polygon points="215.97 171.78 216.35 179.58 211.73 181.87 208.57 173.87 215.97 171.78" style="fill: rgb(255, 195, 189); transform-origin: 212.46px 176.825px;" id="elk5dhepxk01" class="animable"></polygon><path d="M191.44,399.24a.17.17,0,0,1,.05-.18c.26-.21,2.58-2.09,3.46-1.82a.51.51,0,0,1,.34.36.87.87,0,0,1-.14.8c-.58.78-2.48.92-3.56.94h0A.17.17,0,0,1,191.44,399.24Zm.61-.23c1.48-.07,2.53-.36,2.85-.79a.57.57,0,0,0,.09-.54c0-.07-.06-.12-.13-.14h-.06C194.27,397.47,193,398.3,192.05,399Z" style="fill: rgb(64, 123, 255); transform-origin: 193.382px 398.277px;" id="el1ecou5qxcj7" class="animable"></path><path d="M116.06,211.18c-5.69,2.24-23.68,17-24.35,23.43s20.34,13.63,20.34,13.63l5.1-4.33s-12.79-9.83-12.79-11,16-9.62,16-9.62a12.67,12.67,0,0,0,.41-8.66C119.71,211.66,116.06,211.18,116.06,211.18Z" style="fill: rgb(38, 50, 56); transform-origin: 106.519px 229.71px;" id="elgdausdxdz9b" class="animable"></path><path d="M152.34,204.16c8.51-.65,23.93-5.51,28.07-8.16s22.88-17.16,22.88-17.16l5.34,6.15s-14.11,16.39-22.2,21.69-30.1,13.65-30.1,13.65Z" style="fill: rgb(38, 50, 56); transform-origin: 180.485px 199.585px;" id="eli01pgtt86j9" class="animable"></path><path d="M191.52,399.32a.16.16,0,0,1-.09-.12,4.48,4.48,0,0,1,.49-2.7,1.14,1.14,0,0,1,.8-.44c.43-.05.59.14.66.3.26.71-1,2.43-1.7,2.95l-.11,0Zm1.23-2.95a.78.78,0,0,0-.58.33,3.67,3.67,0,0,0-.45,2.17c.7-.65,1.52-2,1.36-2.39,0,0,0-.1-.17-.11Z" style="fill: rgb(64, 123, 255); transform-origin: 192.403px 397.686px;" id="ell4katbtywxg" class="animable"></path><path d="M116.06,211.18c1,2.44,1.94,4.91,2.78,7.38q1.39,4.08,2.52,8.12c.52,1.84,1,3.68,1.44,5.48.16.61.3,1.23.44,1.83.35,1.45.66,2.88,1,4.29s.55,2.67.8,4,.53,2.75.76,4.07.44,2.59.64,3.82.42,2.69.6,4c.23,1.58.43,3.06.61,4.42.56,4.09.94,7.08,1.28,8.51l34.59-7c0-2.71,0-5.32-.13-7.84-.06-1.68-.14-3.31-.26-4.9-.06-1.05-.14-2.08-.23-3.1-.13-1.54-.28-3-.44-4.5-.2-1.63-.41-3.2-.64-4.72q-.63-4.2-1.4-7.81c-.63-2.92-1.3-5.56-2-7.92-.86-3-1.74-5.48-2.54-7.57a48.3,48.3,0,0,0-3.52-7.49,67.47,67.47,0,0,0-8.47.06c-.6,0-1.2.1-1.81.17a128.25,128.25,0,0,0-14.71,3c-.91.23-1.85.5-2.75.77A89.2,89.2,0,0,0,116.06,211.18Z" style="fill: rgb(38, 50, 56); transform-origin: 139.79px 235.623px;" id="elg8l46oxg5r" class="animable"></path><path d="M125,190.46c2,4.56,4.77,13,1.91,16.87a16.66,16.66,0,0,0,13,2.27c4.31-.89,3.93-3.79,2.64-5.18-5.86-.22-6.54-4.17-6.33-8Z" style="fill: rgb(255, 195, 189); transform-origin: 134.21px 200.258px;" id="elqp6igd7tvvi" class="animable"></path><g id="elise3rcshki"><path d="M126.75,193l9.44,3.35a14.26,14.26,0,0,0,.06,2.7C129.48,200.87,126.67,193.56,126.75,193Z" style="opacity: 0.2; transform-origin: 131.499px 196.17px;" class="animable"></path></g><path d="M148.14,301.91l11.37-23-1.9-7.68-4.29-2.11,4-8.05-1.91-7.68-16.11-7.95,31-23.37-1.9-7.67L145.31,203l-55,40.16L81,262l1.91,7.68,30,14.81-4.78,9.68,1.9,7.68,21.81,10.77,7.46-15.11ZM127.6,256.38l-1.75-.86,3.46-2.61Z" style="fill: rgb(64, 123, 255); transform-origin: 125.65px 257.81px;" id="el88s9mdkfp15" class="animable"></path><g id="elwlyy3g6ndn9"><polygon points="153.32 269.08 157.29 261.03 155.4 253.35 139.28 245.4 170.26 222.03 168.36 214.35 145.31 202.98 90.31 243.14 90.25 243.25 145.24 203.1 168.29 214.48 118.47 252.04 127.52 256.51 127.59 256.38 125.85 255.52 129.29 252.93 134.17 243.04 155.32 253.48 148.67 266.95 157.53 271.32 146.16 294.36 137.3 289.98 129.84 305.09 108.15 294.38 110.01 301.87 131.82 312.64 139.28 297.53 148.14 301.9 159.51 278.87 157.61 271.19 153.32 269.08" style="opacity: 0.2; transform-origin: 130.255px 257.81px;" class="animable"></polygon></g><g id="elti2jgvckiri"><polygon points="115.49 279.22 81.03 262.21 82.89 269.7 112.88 284.5 115.49 279.22" style="opacity: 0.2; transform-origin: 98.26px 273.355px;" class="animable"></polygon></g><path d="M115.79,243.91l7.35,2.48-6,6.17s-6.43-2.6-5-5.85Z" style="fill: rgb(255, 195, 189); transform-origin: 117.536px 248.235px;" id="elp7dcmtariv" class="animable"></path><polygon points="128.09 252.26 121.13 255.82 117.15 252.56 123.14 246.38 128.09 252.26" style="fill: rgb(255, 195, 189); transform-origin: 122.62px 251.1px;" id="eli95u64hsunr" class="animable"></polygon><path d="M134.36,169.29c5.78.24,8,12.32,6.22,14.29C137.19,187.25,127.2,169,134.36,169.29Z" style="fill: rgb(38, 50, 56); transform-origin: 136.507px 176.677px;" id="elabjusxyfsqb" class="animable"></path><path d="M121.83,184.9c2.87,6.42,4.23,10.32,8.81,12.45,6.9,3.2,13.88-2.86,13-10-.81-6.43-5.37-15.85-12.79-16.05A9.59,9.59,0,0,0,121.83,184.9Z" style="fill: rgb(255, 195, 189); transform-origin: 132.332px 184.761px;" id="elld666znb18" class="animable"></path><path d="M115,182.75c2.12,4.22,9.29,11.46,11.75,10.29,2.66-1.28,1.23-7.55-2.17-12.45Z" style="fill: rgb(38, 50, 56); transform-origin: 121.566px 186.878px;" id="el0ze4i426wspe" class="animable"></path><path d="M121.58,193.26a6.65,6.65,0,0,0,4.94,1.29c2.32-.33,2.54-2.63,1.11-4.33-1.3-1.53-4.06-3.19-6-2A3,3,0,0,0,121.58,193.26Z" style="fill: rgb(255, 195, 189); transform-origin: 124.379px 191.214px;" id="elbpri98a1x5" class="animable"></path><path d="M132.49,183c.2.54.64.86,1,.73s.47-.67.27-1.21-.64-.86-1-.73S132.29,182.46,132.49,183Z" style="fill: rgb(38, 50, 56); transform-origin: 133.125px 182.76px;" id="elt1112iek6ui" class="animable"></path><path d="M138.53,180.72c.21.53.65.86,1,.73s.47-.67.27-1.21-.65-.86-1-.73S138.33,180.18,138.53,180.72Z" style="fill: rgb(38, 50, 56); transform-origin: 139.165px 180.48px;" id="el4tp1ug2iw4b" class="animable"></path><path d="M136.71,181.71a20.35,20.35,0,0,0,4.28,3.61,3.31,3.31,0,0,1-2.38,1.44Z" style="fill: rgb(237, 132, 126); transform-origin: 138.85px 184.235px;" id="eldsaw656x1c4" class="animable"></path><path d="M137.63,188.82a.18.18,0,0,0,.08-.21.17.17,0,0,0-.22-.1,4.51,4.51,0,0,1-4.08-.36.16.16,0,0,0-.23,0,.16.16,0,0,0,0,.23,4.8,4.8,0,0,0,4.4.41Z" style="fill: rgb(38, 50, 56); transform-origin: 135.425px 188.622px;" id="elynu5jih5vjr" class="animable"></path><path d="M130,181.71a.34.34,0,0,0,.17-.2,2.68,2.68,0,0,1,1.62-1.81.34.34,0,0,0,.22-.42.33.33,0,0,0-.42-.22,3.35,3.35,0,0,0-2.07,2.26.33.33,0,0,0,.23.41A.31.31,0,0,0,130,181.71Z" style="fill: rgb(38, 50, 56); transform-origin: 130.766px 180.395px;" id="el2edod96123b" class="animable"></path><path d="M140.44,177.63l.09-.07a.33.33,0,0,0,0-.47,3.3,3.3,0,0,0-2.92-.92.33.33,0,0,0-.25.4.35.35,0,0,0,.41.25,2.66,2.66,0,0,1,2.3.76A.35.35,0,0,0,140.44,177.63Z" style="fill: rgb(38, 50, 56); transform-origin: 138.99px 176.89px;" id="elespqe8nn5tw" class="animable"></path><path d="M119.8,189a14,14,0,0,1-6.25-9.29c-1.12-6.4,10.42-12.79,16.85-13.29s5.41,6.54,5.41,6.54-8.33,3-11.2,4.79,0,2.85,0,2.85Z" style="fill: rgb(38, 50, 56); transform-origin: 124.672px 177.697px;" id="elv7r7yeq7z1n" class="animable"></path><path d="M104.36,233c0-.07.06-.16.17-.28H92.31a6.19,6.19,0,0,0-.6,1.94c-.66,6.4,20.34,13.63,20.34,13.63l5.1-4.33S104.36,234.08,104.36,233Z" style="fill: rgb(38, 50, 56); transform-origin: 104.422px 240.505px;" id="elm4jar2ftmre" class="animable"></path></g><g id="freepik--Text--inject-1" class="animable" style="transform-origin: 235.149px 160.846px;"><path d="M262.77,168.05l-50.65,9.64a12.26,12.26,0,0,1-14.34-9.75h0a12.25,12.25,0,0,1,9.75-14.34L258.19,144a12.27,12.27,0,0,1,14.34,9.76h0A12.27,12.27,0,0,1,262.77,168.05Z" style="fill: rgb(64, 123, 255); transform-origin: 235.149px 160.846px;" id="elwccghiy30qd" class="animable"></path><g id="elwszfsj0n07k"><path d="M262.77,168.05l-50.65,9.64a12.26,12.26,0,0,1-14.34-9.75h0a12.25,12.25,0,0,1,9.75-14.34L258.19,144a12.27,12.27,0,0,1,14.34,9.76h0A12.27,12.27,0,0,1,262.77,168.05Z" style="fill: rgb(255, 255, 255); opacity: 0.6; transform-origin: 235.149px 160.846px;" class="animable"></path></g><path d="M220.83,166.49l.24,1.29L214.89,169l-1.57-8.24,6-1.15.24,1.29-4.49.85.41,2.14,4-.75.24,1.26-4,.75.43,2.28Z" id="elotmjziappjq" class="animable" style="transform-origin: 217.195px 164.305px;"></path><path d="M228.18,166.42,226,164.33l-.32.07-1.86.36.46,2.4-1.53.29-1.57-8.25,3.39-.64c2.17-.42,3.72.44,4.07,2.26a2.69,2.69,0,0,1-1.26,2.94l2.41,2.35Zm-3.4-6.55-1.79.34.63,3.28,1.79-.34c1.34-.25,1.92-1,1.73-2S226.13,159.61,224.78,159.87Z" id="elbugpl34goan" class="animable" style="transform-origin: 225.485px 162.953px;"></path><path d="M236.8,164.78l-2.15-2.09-.31.07-1.86.35.45,2.41-1.53.29-1.57-8.25,3.4-.64c2.16-.42,3.72.44,4.07,2.26a2.71,2.71,0,0,1-1.26,2.94l2.41,2.35Zm-3.4-6.55-1.79.34.63,3.28,1.79-.34c1.34-.25,1.92-1,1.72-2S234.75,158,233.4,158.23Z" id="elmk8jxa59vmr" class="animable" style="transform-origin: 234.14px 161.313px;"></path><path d="M238.65,160.16a4.52,4.52,0,1,1,5.24,3.39A4.29,4.29,0,0,1,238.65,160.16Zm7.34-1.4a3,3,0,1,0-2.35,3.45A2.88,2.88,0,0,0,246,158.76Z" id="els6g1w394pni" class="animable" style="transform-origin: 243.046px 159.131px;"></path><path d="M255.34,161.25l-2.14-2.09-.32.07-1.86.35.46,2.41-1.53.29L248.38,154l3.39-.64c2.17-.42,3.72.44,4.07,2.26a2.69,2.69,0,0,1-1.26,2.94l2.41,2.35Zm-3.4-6.55-1.79.34.63,3.28,1.79-.34c1.34-.25,1.92-1,1.72-2S253.29,154.44,251.94,154.7Z" id="elintneph3f3i" class="animable" style="transform-origin: 252.685px 157.768px;"></path></g><defs>     <filter id="active" height="200%">         <feMorphology in="SourceAlpha" result="DILATED" operator="dilate" radius="2"></feMorphology>                <feFlood flood-color="#32DFEC" flood-opacity="1" result="PINK"></feFlood>        <feComposite in="PINK" in2="DILATED" operator="in" result="OUTLINE"></feComposite>        <feMerge>            <feMergeNode in="OUTLINE"></feMergeNode>            <feMergeNode in="SourceGraphic"></feMergeNode>        </feMerge>    </filter>    <filter id="hover" height="200%">        <feMorphology in="SourceAlpha" result="DILATED" operator="dilate" radius="2"></feMorphology>                <feFlood flood-color="#ff0000" flood-opacity="0.5" result="PINK"></feFlood>        <feComposite in="PINK" in2="DILATED" operator="in" result="OUTLINE"></feComposite>        <feMerge>            <feMergeNode in="OUTLINE"></feMergeNode>            <feMergeNode in="SourceGraphic"></feMergeNode>        </feMerge>            <feColorMatrix type="matrix" values="0   0   0   0   0                0   1   0   0   0                0   0   0   0   0                0   0   0   1   0 "></feColorMatrix>    </filter></defs></svg>